<svg id="图层_1" data-name="图层 1" xmlns="http://www.w3.org/2000/svg" viewBox="0 0 912.35 375.47"><defs><style>.cls-1,.cls-2,.cls-5,.cls-6{fill:#00a1e9;}.cls-1,.cls-2,.cls-6{stroke:#00a1e9;}.cls-1,.cls-2,.cls-4,.cls-6{stroke-miterlimit:10;}.cls-1{stroke-width:10px;}.cls-2{stroke-width:7px;}.cls-3{fill:#231916;}.cls-4{fill:none;stroke:#231916;}.cls-6{stroke-width:3px;}.cls-7{opacity:0.8;}.cls-8{fill:#fff;fill-rule:evenodd;}</style></defs><title>Final version of iHESP LOGO</title><path class="cls-1" d="M682.75,531.36V441.41h-142v89.95H523.62V343.84h17.14v85.82h142V343.84h17V531.36Z" transform="translate(-396.72 -326.03)"/><path class="cls-1" d="M763.52,531.36V343.84H879.39v12H780.67V431h91.67v11.74H780.67v76.87H885.16v11.75Z" transform="translate(-396.72 -326.03)"/><path class="cls-1" d="M1182.59,456.18v75.18h-17.14V343.84h59.77q38.31,0,58.58,13.43t20.27,39.1q0,26.16-22.59,43t-63.31,16.83Zm0-100.36v88.49h35.26q33.5,0,51.05-12.1T1286.44,398q0-42.13-64.26-42.13Z" transform="translate(-396.72 -326.03)"/><path class="cls-2" d="M1022.77,333.81c-48,0-87.64,27.62-92.53,62.93a54.49,54.49,0,0,0-.5,7.36,56.81,56.81,0,0,0,11,33,75.09,75.09,0,0,0,14.28,15,99.14,99.14,0,0,0,34.55,17.56,119.29,119.29,0,0,0,33.24,4.66A117,117,0,0,0,1066,466.3a56.56,56.56,0,0,1-15.88-12,91.72,91.72,0,0,1-27.36,4.1A92.65,92.65,0,0,1,999,455.34c-13.28-3.53-24.78-9.92-33.2-18.19a51.82,51.82,0,0,1-10.81-15,41.33,41.33,0,0,1-3.45-25.25c4.68-26.56,34.83-47.11,71.24-47.11,29.66,0,55.17,13.63,66.15,33a80.67,80.67,0,0,1,11.65-.84,81.84,81.84,0,0,1,10.83.73C1099.39,354.39,1064.21,333.81,1022.77,333.81Z" transform="translate(-396.72 -326.03)"/><path class="cls-2" d="M1106.19,441.28a68.47,68.47,0,0,0-12.14-16c-9.81-9.76-23-17.57-38.3-22.4a117.27,117.27,0,0,0-26.07-5,120.3,120.3,0,0,0-43,4.3,47.07,47.07,0,0,1,11.69,13.81,93.92,93.92,0,0,1,29.08-2.23,91.54,91.54,0,0,1,17.89,3.2c15.11,4.31,27.63,12.31,35.87,22.41a48.21,48.21,0,0,1,8.68,15.77,41.18,41.18,0,0,1,1.6,18.28c-.18,1.32-.45,2.61-.75,3.9-6.53,27.75-40.54,47.45-78.23,44.47-31.6-2.49-56.3-20.18-62.76-42.43a81.2,81.2,0,0,1-14.31.15c-2.52-.2-5-.53-7.39-.95,6.33,30.76,39.4,55.74,82.26,59.12,49.82,3.93,94.69-22.75,101.74-59.89.18-.9.34-1.8.47-2.71A54.51,54.51,0,0,0,1106.19,441.28Z" transform="translate(-396.72 -326.03)"/><path class="cls-3" d="M408.27,606.83h50.07v52.28h-3.11V656H411.41v3.07h-3.14Zm3.14,2.81v43.59h43.82V609.64Zm6.17,18.53h14.08v-8.95H416.4v-2.69h33.69v2.69H434.71v8.95h14.12v2.69H434.71v12.56h16.41v2.7H415.43v-2.7h16.23V630.86H417.58Zm21.48,7.25,2.08-1.86a81.77,81.77,0,0,1,6.19,5.56l-2.29,2A71.22,71.22,0,0,0,439.06,635.42Z" transform="translate(-396.72 -326.03)"/><path class="cls-3" d="M483.87,640q0,8.16-6,8.63c-.73,0-1.37.08-1.94.08-.28,0-.6,0-1,0h-1.55a25.37,25.37,0,0,0-.68-3.21,33,33,0,0,0,4.23.11c2.71,0,4-1.92,4-5.76q0-6.86-5.84-13.62l5.25-16h-9.68v48.92h-3.14v-52H483.4v3.29l-5.11,15.29Q484,632.78,483.87,640Zm7.9-5.83,3,1.12a196.37,196.37,0,0,1-8.42,18.5l-3-1.46A141.25,141.25,0,0,0,491.77,634.13Zm-7.11-11h36.6v3.07h-16.7V652q.15,6.42-6.48,6.45l-2.73.06h-3.58c-.12-1-.33-2.07-.62-3.33,1.94.15,3.9.23,5.9.23a4.82,4.82,0,0,0,3.34-.83,3.72,3.72,0,0,0,.91-3V626.16H484.66ZM488,608.67h30v3H488Zm22.1,26.64,2.9-1.23q4.26,8.11,8.66,17.26l-3.14,1.55Q514.72,644.31,510.14,635.31Z" transform="translate(-396.72 -326.03)"/><path class="cls-3" d="M551,604.42l3.26-.63q.75,2.79,1.49,5.85h25.92v2.73H525.22v-2.73h27.24Q552,607.78,551,604.42Zm-19.4,54.46h-3.14V633h49.89v18.92q.35,6.47-6.37,6.4c-2.11.08-4.5.11-7.16.11a28.68,28.68,0,0,0-.64-3.09q2.87.16,6.66.17c1.7,0,2.85-.25,3.46-.8a3.63,3.63,0,0,0,.91-3v-16H531.62Zm3.4-41.69h36.81v10.89H535Zm3.09,2.63v5.62h30.63v-5.62Zm2.64,20.54H566.1v11.58H540.75Zm3,2.61v6.39h19.37V643Z" transform="translate(-396.72 -326.03)"/><path class="cls-3" d="M587.44,629.63a23.45,23.45,0,0,0-2.35-2.69A64,64,0,0,0,606,604.65l3,1.49A75,75,0,0,1,587.44,629.63Zm5.16-.43h37.86q-.32,10.59-.88,18.44-.35,9.9-10.48,9.89-2,.06-4.05.09c-.66,0-1.36,0-2.08,0h-2.58a27.11,27.11,0,0,0-.59-3.47q4.17.23,9.13.23,7.19.4,7.39-7.17.57-7.89.68-15.09H607.22Q607,651.48,589,659.34a21.85,21.85,0,0,0-2.08-2.75q17-6.89,16.93-24.44H592.6ZM618.22,605l3.11-1.12a43.18,43.18,0,0,0,20.37,22.65c-1,1.13-1.82,2.12-2.52,3A52.59,52.59,0,0,1,618.22,605Z" transform="translate(-396.72 -326.03)"/><path class="cls-3" d="M645.87,640h7.92a55.12,55.12,0,0,0,.24-6.06v-3.69h-8.72v-2.7h10.36q2.91-5.79,5.05-10.93l2.82,1.12q-2.7,5.53-5,9.81h6.72v2.7h-8.1v3.52q0,2.55-.24,6.23h7.81v2.69h-8.13q-1,8.8-9,16.58a12,12,0,0,0-1.64-1.61c-.36-.31-.61-.54-.77-.69q7.39-6.79,8.31-14.28h-7.63Zm-.12-28.19h19.11v2.69H645.75Zm1,6.1,2.46-1.12q1.92,3.13,4.11,7.35l-2.64,1.23C649.43,622.69,648.12,620.21,646.75,617.87Zm5.55-13,2.58-1.17q2.05,3.18,3.67,6.28l-2.64,1.23C654.67,609,653.47,606.84,652.3,604.91Zm21.51-.31h3.08v24.26q.09,11.49-2.44,17.58-2.43,6.33-9.59,12.79a24.1,24.1,0,0,0-2.41-2.36q6.9-5.85,9.1-11.61,2.34-5.53,2.26-16.63Zm-6.14,14.11,3,.22q-.58,8.15-1.82,17l-3-.54A146.6,146.6,0,0,0,667.67,618.71ZM680.12,640H689v-9.58h-9.66v-2.7h12q2.76-5.56,5-10.93l2.81,1.12q-2.67,5.6-5,9.81h7.9v2.7h-9.92V640h9.3v2.69h-9.3v16.4H689v-16.4h-8.89Zm-.24-28.19h21v2.69h-21Zm2.23,6.28,2.47-1.12q1.93,3.24,4.08,7.34L686,625.5C684.78,622.94,683.48,620.45,682.11,618.05Zm5-13.14,2.58-1.17c1.37,2.12,2.6,4.21,3.67,6.28l-2.64,1.23C689.48,609,688.28,606.84,687.1,604.91Z" transform="translate(-396.72 -326.03)"/><path class="cls-3" d="M732.18,638.38h3.17v5.33H762v2.84H735.35v12.56h-3.17V646.55h-26.5v-2.84h26.5Zm-13.06-10.7,1.76,2.58q-6.51,3.68-13.23,8l-1.85-2.84Q712.43,631.69,719.12,627.68Zm11.68-23.14,3.11-.95q1,2.42,2.53,6.71h24.65v2.76H732.94l2.06,1.23a92.4,92.4,0,0,1-8.6,7.88c.41,0,1.11,0,2.11,0,3.82-.08,6.7-.16,8.66-.23q2.64-2.5,5.16-5.17l2.76,2.13a184.31,184.31,0,0,1-18,14.79c3.9,0,8.6-.21,14.12-.45q-1.29-1.72-3.2-4.08l2.52-1.57q3.65,4.29,7.34,9.17l-2.7,1.81c-.16-.21-.37-.51-.64-.89q-.94-1.32-1.47-2-9.63.35-17.17.75a30.35,30.35,0,0,0-4,.43l-1.06-2.67a15.4,15.4,0,0,0,3.91-2,99.12,99.12,0,0,0,9.54-7.57c-2.71.06-5.73.15-9.07.29a35.88,35.88,0,0,0-3.67.34l-1.15-2.58a9.21,9.21,0,0,0,2.85-1.35,51.32,51.32,0,0,0,8.51-8.28H706.5V610.3H733Q732.36,608.29,730.8,604.54Zm-22.66,14.11,2-2.07q4.88,3.51,8.3,6.28l-2.23,2.3A100.3,100.3,0,0,0,708.14,618.65Zm51.8,19.13q-6.66-4.56-12-7.86l1.94-2.24q6.24,3.68,12.15,7.57Zm-11.47-14.86a78.61,78.61,0,0,0,8.65-6.39l2.09,2.23q-4,3.16-8.83,6.51Z" transform="translate(-396.72 -326.03)"/><path class="cls-3" d="M766,652.29l-.91-3q3-.79,8.48-2.41V623h-6.87v-2.81h6.87V604.08h3.17v16.09h6.43V623H776.7v23l2.85-.89c2.25-.69,4-1.23,5.22-1.64,0,.35.12,1.32.35,2.93Q772.57,650.13,766,652.29Zm22.36-41.21h3.17V623.7l10.33-3.53V604H805v15.14l14.17-4.88q-.23,10.63-.64,17-.18,8.55-6.69,8.11-1.38.06-4,.06a16,16,0,0,0-.65-3.07c.57,0,1.17.07,1.79.09.3,0,.63,0,1,0h1.41c2.58.25,3.92-1.42,4-5q.5-7.26.62-13.16l-11,3.84v24.72h-3.2V623.15l-10.33,3.58v21.63q0,3.5,1.29,4.56c.8.8,2.5,1.18,5.08,1.14h12.68q7,.29,7.69-4.7a70.24,70.24,0,0,0,1.26-7.83,12.18,12.18,0,0,0,3.08,1,78.85,78.85,0,0,1-1.32,8q-.79,3.62-3,5T811.45,657H796.83q-8.9.35-8.51-7.69V627.8l-5,1.72-.5-2.9,5.49-1.81Z" transform="translate(-396.72 -326.03)"/><path class="cls-3" d="M826.12,653.4l-.5-3.15q3.5-.46,8.13-1.18V631.44h-7.22v-2.7h7.22V613.29h-8v-2.76h18.69v2.76h-7.57v15.45h6.63v2.7h-6.63v17.09q4.11-.69,8.07-1.46c0,.38-.06,1.39-.06,3Q834.07,651.82,826.12,653.4ZM846.19,615h15.15V604.37h3.11V615h17.08v2.87H864.45v2.35a53.86,53.86,0,0,0,4.28,12.62,109.8,109.8,0,0,0,9.36-9.64l2.53,2a139.58,139.58,0,0,1-10.57,10.09,53.52,53.52,0,0,0,12.56,14.29,15.11,15.11,0,0,0-2.28,2.52q-12.27-10.53-15.88-23.09v22.2q.38,6.82-7.46,6.83c-1.33,0-3.15,0-5.45,0a19.55,19.55,0,0,0-.53-3.3c1.25.1,3.17.16,5.75.18,1.84,0,3.06-.3,3.67-1s.93-1.78.91-3.61V638.72q-7.76,5.19-14.26,9.12l-2-2.84q9.51-5.19,16.23-9.75V617.82H846.19Zm.77,9.75,2.58-1.55c2.27,2.93,4.58,6.19,6.93,9.81l-2.7,1.66Q850.56,629.49,847,624.7Zm20.69-16.35,1.9-2q4.2,2.58,7.78,5.17l-2.05,2.18Q872.13,611.34,867.65,608.35Z" transform="translate(-396.72 -326.03)"/><path class="cls-3" d="M900.4,643l2.64,2a164.24,164.24,0,0,1-14.67,11.24,19.6,19.6,0,0,0-2.32-2.55A91.86,91.86,0,0,0,900.4,643Zm37.39-.54-.33-.32c-1.7-1.58-3.1-2.85-4.19-3.78q-6.19.14-16.88.46v12.27q.33,6.71-6.75,6.83-1.85.1-6.78.11a16.43,16.43,0,0,0-.85-3.36c1.84.16,4.13.23,6.87.23,3,.18,4.47-1.25,4.31-4.27V638.89q-7,.24-16.81.66c-1.33.08-2.91.2-4.73.38l-.44,0-1.49-3.16a28.82,28.82,0,0,0,5.87-2,208.46,208.46,0,0,0,18.69-9.46q-8,.12-17.73.66l-.82.06c-1.43.09-2.43.19-3,.28l-1.32-2.92a19.6,19.6,0,0,0,4.43-1.89,147.11,147.11,0,0,0,16.67-10.44q-13.56.79-22.36,1.09a14.38,14.38,0,0,0-.74-3q27-.85,48.34-2.75l.85,2.87q-11.57.94-25.21,1.69l2.47,1.72a194.35,194.35,0,0,1-17.79,10.44l19.63-.43,1.18,0q6.9-4.16,11.41-7.34l2.94,2.24a332.86,332.86,0,0,1-35.51,19q18.81-.32,32.75-.75c-.65-.55-1.61-1.39-2.9-2.52-2.18-1.85-3.75-3.21-4.73-4.07l2.23-1.87q7.13,5.83,15.09,13Zm-14.12,2.69,2.26-2.15q8,5.28,15,10.38l-2.26,2.41Q930,649.45,923.67,645.17Z" transform="translate(-396.72 -326.03)"/><path class="cls-3" d="M946.56,653.63l-.91-2.92q12.83-2.18,19.49-3.59-.09,1-.09,1.5c0,.28,0,.76,0,1.43Q956.07,651.54,946.56,653.63Zm5.05-15.48c2.06-.19,5.26-.45,9.63-.78,1.31-.09,2.3-.17,3-.23a14.9,14.9,0,0,0-.38,2.56.75.75,0,0,0,0,.2q-11.27.79-15.94,1.46l-1.08-2.75a25.27,25.27,0,0,0,5-5.05q2.46-3.12,5.66-7.74c-4.62.07-8.19.21-10.71.4l-.91-3a20.67,20.67,0,0,0,3.73-4.22,120.69,120.69,0,0,0,9-15.08l3.29,1.12q-5.22,8.88-12.06,18.32l3.2-.09q4.32-.13,6.22-.17c.88-1.32,2.1-3.31,3.67-6l3.2,1.23Q957.83,630.43,951.61,638.15ZM965,611.77h17.79c-.3-1-1.32-3.43-3.08-7.35l3-.94c1.1,2.23,2.17,4.62,3.23,7.17L983,611.77h18.7v2.86H979.2l3,1.32q-4.54,5.71-11.48,13.31,12.48-.37,22.13-.8-2.43-3-5-6.17l2.59-1.66Q997,628.4,1001,633.45l-2.7,1.92q-1.53-2-3.34-4.33-3.83.23-6.25.23v19.09a4.71,4.71,0,0,0,.82,3.3,3.79,3.79,0,0,0,3,.92H994c1.78,0,3-.22,3.55-.72s1.12-1.47,1.38-3c.19-1.14.41-3.16.64-6.05a19.59,19.59,0,0,0,3.09,1.12,57.6,57.6,0,0,1-.8,6.11c-.52,3.78-3.13,5.61-7.8,5.48h-2.12q-6.6.16-6.42-6.43V631.38c-3.15.13-5.6.25-7.34.34q0,11.73-3,16.95-2.69,5.37-11.71,10.56a27.41,27.41,0,0,0-2.15-2.53q8.74-4.79,11.07-9.43,2.67-4.39,2.58-15.35l-.26,0q-.82.06-1.68.09a46.29,46.29,0,0,0-6.07.75l-1.67-3.16a16,16,0,0,0,3.55-2.58,73.81,73.81,0,0,0,10-12.42H965Z" transform="translate(-396.72 -326.03)"/><path class="cls-3" d="M1006.9,609.59v-2.76h20.25v3.24l-8.89,10.38c.41.43,1,1,1.88,1.84l.88.86-2.09,1.84h10v3l-2.9,9.58a17.12,17.12,0,0,0-3.06-.75l2.94-9h-7.4v24.54c0,3.9-2,5.92-5.81,6l-2.32.06h-2.9c-.22-1.3-.42-2.33-.62-3.1,1.39.12,3,.18,4.93.18q3.74.08,3.61-3.3V627.8h-9.62V625h12.79q-3.72-4-9-9l2.17-1.84,4.52,4.25,7.52-8.83Zm53.5,48.75q-7.8-7.12-14.73-12.91-3,6.77-16.88,13.85a26.92,26.92,0,0,0-2.23-2.69q11.07-5,14.68-9.9,3.72-4.56,3.58-13.85v-7.63H1048v7.89a31,31,0,0,1-1.15,9.49q9.63,7.89,15.94,13.22Zm-29.7-51.56h32v2.81h-15.35l-1.73,9.23H1060V645.6h-3.11v-24h-20.92v24.26h-3.12v-27h9.81l1.55-9.23H1030.7Z" transform="translate(-396.72 -326.03)"/><path class="cls-3" d="M1074.11,629q-3.7-3.33-8-6.57l2.12-2q5,3.59,8.36,6.23Zm-6.81,27.73a203.34,203.34,0,0,0,6.57-20.16,25.56,25.56,0,0,0,2.91,1.35l.2.08q-3.2,9.65-6.42,20.25Zm8.48-42.24q-2.85-2.67-7.66-6.6l-.5-.43,2.2-2,1.32,1c2.94,2.27,5.28,4.18,7,5.73Zm14.12,1.6h3v11.79q.09,12.3-2.23,17.87l1.73-1.52q7.64,6.13,12.33,10.15l-2.41,2.29q-4.72-4.38-11.89-10.35-2.22,6.14-11.85,12.7a27.25,27.25,0,0,0-2.2-2.46q8.94-5.75,11.09-10.87,2.58-4.94,2.47-17.75Zm-9.07-9H1102v35.07h-2.94V610h-15.26v32.23h-3Zm36.48-3.15h3v47.31q.24,6.74-5.78,6.88-1.26.06-2.64.09-.64,0-1.44,0h-1.94a17.33,17.33,0,0,0-.58-3.16q2.4.18,5.1.18c1.68,0,2.82-.31,3.41-1s.93-1.85.91-3.67Zm-6.49,41.52h-2.88V608.67h2.88Z" transform="translate(-396.72 -326.03)"/><path class="cls-3" d="M1128.49,659.23a35.81,35.81,0,0,0-1.91-3.13q23.19-4.71,27.94-13.79h-27.41v-3h28.79q2.49-6.14,2.4-20.84h3.38q0,13.5-2.23,20.84h22.83v3h-24a18.24,18.24,0,0,1-1.38,2.35q14.44,6.14,24.39,10.75l-1.9,2.93q-12.27-6-24.36-11.27Q1148.21,654.72,1128.49,659.23Zm22.77-54.15,2.91-1.29q1.75,2.88,3.9,6.91l-2.58,1.18h25.24v9.58h-3.26v-6.63h-46v6.63h-3.26v-9.58h26.68C1153.81,609.62,1152.61,607.36,1151.26,605.08Zm-6.6,31q-5.58-3.27-11.3-5.93l1.67-2.53q6.17,2.85,11.56,5.71Zm5.4-8.34q-5.61-3.39-11.1-6.22l1.74-2.41q6.48,3.27,11.24,5.93Z" transform="translate(-396.72 -326.03)"/><path class="cls-3" d="M1186.3,646l-.41-3q5.49-.87,13.35-2.3a12.09,12.09,0,0,0-.11,1.44c0,.7,0,1.2,0,1.49Q1193.64,644.52,1186.3,646Zm6.58-32.41-1.38,17.21H1199l1.67-20.91h-13.35v-2.78h16.52l-1.73,23.69h3.61q-.24,11.1-.79,20.24-.12,6.83-7.75,6.71l-2.7.06h-3.37a15.46,15.46,0,0,0-.59-3.07c1.82.12,3.92.17,6.31.17,3.38.2,5.08-1.27,5.1-4.38q.42-5.53.65-16.92H1188.3l1.55-20Zm48.24,12.16a52.18,52.18,0,0,1-16.64-16.58q-5.68,9.42-16.7,17.27c-.64-.84-1.37-1.74-2.17-2.7a50.13,50.13,0,0,0,18.58-20.33l3.23.66c-.2.38-.5.92-.91,1.61-.24.4-.41.7-.53.91q7.49,11.07,17.2,16.26C1242.36,623.93,1241.67,624.9,1241.12,625.76Zm-33.6,27.41h20.81q4.17-10.74,7.1-20.79l3.11.89q-4,12-7.16,19.9h10.42V656h-34.28Zm2.35-19,2.9-.74q1.65,4.75,4.55,14.85l-2.93.89Q1212.71,642.85,1209.87,634.19Zm2.58-9.61H1236v2.81h-23.51Zm8.83,7.86,2.91-.66q1.69,5.63,3.67,13.82l-3,.69Q1223.47,639.87,1221.28,632.44Z" transform="translate(-396.72 -326.03)"/><path class="cls-3" d="M1294.86,639l-1.35-1.26q-1.8-1.73-2.73-2.55-9.45.23-14.56.37v7.91h21.34v2.76h-21.34V654h26.83v2.81h-56.53V654h26.53v-7.83h-21.16v-2.76h21.16v-7.8l-5.75.18q-4.58.16-6.92.23a47.81,47.81,0,0,0-5.43.4l-1.5-3.1a23.3,23.3,0,0,0,4-2.06,77.93,77.93,0,0,0,9.33-7.29h-11.85v-2.75H1295V624h-23.36q-6.14,5.1-12.32,9.41,11.3-.28,28.41-.95-2.15-2-5.58-4.87l2.29-2.07q6.48,5.19,12.91,11Zm-23.45-34,2.9-1.32c1.12,1.82,2.38,4.05,3.79,6.71l-2.23,1H1301v9.15h-3.2v-6.39h-46v6.39h-3.19v-9.15h26.26A58.48,58.48,0,0,0,1271.41,605Z" transform="translate(-396.72 -326.03)"/><line class="cls-4" x1="3.14" y1="252.29" x2="907.35" y2="252.29"/><path class="cls-5" d="M396.72,363.12a37.09,37.09,0,1,1,37.1,37.08A37.09,37.09,0,0,1,396.72,363.12Z" transform="translate(-396.72 -326.03)"/><rect class="cls-6" x="8.03" y="90.04" width="58.45" height="125.54"/><g class="cls-7"><path class="cls-8" d="M461.05,363.36c-.26,0-.34,0-.39.28,0,.06-.05.13-.08.23-.09-.08-.17-.11-.21-.18a.69.69,0,0,0-.49-.37c-.05,0-.11-.08-.11-.12a.93.93,0,0,0-.43-.64.41.41,0,0,1-.18-.42,1,1,0,0,0-.19-.58.82.82,0,0,0-.27-.4c-.06,0-.07-.15-.1-.26a1.45,1.45,0,0,1-.6-.18c-.2-.17-.48-.23-.62-.47a3.5,3.5,0,0,0-.24-.3l-.27-.29a1.45,1.45,0,0,1-.1-.18.66.66,0,0,0-.45.06.84.84,0,0,1-.42,0s-.07-.05-.11-.07L455,359a.67.67,0,0,0-.15-.06c-.05,0-.13-.05-.16-.1a2.23,2.23,0,0,0-.69-.53,2.73,2.73,0,0,1-.91-1,.5.5,0,0,1,0-.27,2.08,2.08,0,0,0-.14-.89c0-.09-.1-.15-.13-.23a2.61,2.61,0,0,0-.49-.76,2,2,0,0,1-.4-.54c0-.06-.1-.07-.15-.12a1.54,1.54,0,0,1-.23-.38,1.24,1.24,0,0,0-.51-.68l-.21.25c.14.26.29.52.42.77,0,0,.05.05,0,.07,0,.36.27.57.39.86a.21.21,0,0,1,0,.1.2.2,0,0,1,0,.14.14.14,0,0,1-.15,0c-.11-.16-.37-.19-.41-.43a.15.15,0,0,0-.1-.12c-.18-.09-.2-.24-.26-.42s-.17-.63-.53-.78-.4-.37-.32-.84a.47.47,0,0,1-.18-.33c0-.08-.08-.16-.14-.22a1.65,1.65,0,0,1-.49-.7c-.1-.22-.2-.45-.31-.67,0-.07-.07-.17-.11-.18-.28,0-.22-.24-.23-.41a.08.08,0,0,0,0-.05l-.86-.52-.05,0a4,4,0,0,1-.62-1,.27.27,0,0,0-.05-.11c-.22-.31-.46-.62-.67-.95a2,2,0,0,1-.33-.94s0-.06,0-.08-.1-.4-.17-.58a1.09,1.09,0,0,1-.08-.47v-1.09a1.86,1.86,0,0,0-.22-.69,1,1,0,0,1-.17-.58l-.7-.36s-.1,0-.11-.08c-.07-.24-.32-.29-.47-.46.1-.2,0-.34-.13-.5a3.57,3.57,0,0,1-.44-.43,1.36,1.36,0,0,0-.56-.41.28.28,0,0,1-.19-.28c0-.28-.07-.31-.34-.23a.36.36,0,0,1-.4-.26c-.05-.18-.21-.27-.31-.41a.17.17,0,0,0-.12,0c-.16.06-.23-.06-.32-.14a2.58,2.58,0,0,0-.81-.62c-.07,0-.12-.12-.21-.21a.74.74,0,0,1-.61-.26h-.05c-.36,0-.68-.2-1-.14a.64.64,0,0,1-.44-.09,1.51,1.51,0,0,0-.48,0c-.15,0-.31,0-.42.13s-.08,0-.12,0L436,339c-.2.06-.2.06-.28-.16l0-.05h0c-.33,0-.41.1-.41.44l.46.08c-.17.52-.18.54-.73.56a2.38,2.38,0,0,0-.08-.26.32.32,0,0,0-.33.05,7.21,7.21,0,0,1-.74.53,1.28,1.28,0,0,1-.45.16.39.39,0,0,0-.23.13.44.44,0,0,1-.23.1,1.87,1.87,0,0,0-1,.27.31.31,0,0,1-.2.06.14.14,0,0,1-.12-.09.2.2,0,0,1,.08-.12,1.38,1.38,0,0,0,.75-.35l.1,0a1.42,1.42,0,0,0,.86-.45l.39-.34s0-.08.07-.12-.19-.08-.29-.1c-.3,0-.61,0-.91-.11a.33.33,0,0,1-.22-.21.26.26,0,0,0-.3-.16,1.06,1.06,0,0,1-.46-.13.91.91,0,0,1-.39-.5.38.38,0,0,1,.07-.3,3,3,0,0,1,.48-.39s.1,0,.15,0l.3,0v-.31H432a.88.88,0,0,1-1-.38s0-.13,0-.14a1,1,0,0,1,.34-.19,6.34,6.34,0,0,0,.68-.14c-.12-.08-.26-.16-.38-.25s-.32-.1-.37-.31a.41.41,0,0,1,.34-.21,1.84,1.84,0,0,0,.77-.28c.06,0,.13-.1.19-.09s.33-.13.5-.18a.91.91,0,0,1,.31-.09.72.72,0,0,0,.62-.3.38.38,0,0,1,.18-.09c.44,0,.89-.09,1.33-.1a1.88,1.88,0,0,1,.45.16.58.58,0,0,0,.17.06.33.33,0,0,1,.33.19.23.23,0,0,0,.14.07,1.64,1.64,0,0,0,.38.1c.33,0,.63.23,1,.15a1.44,1.44,0,0,1,.54.05,3.16,3.16,0,0,0,1.3,0l.29,0c.11,0,.2,0,.25-.12a.48.48,0,0,1,.14-.09.37.37,0,0,0,.23-.21.35.35,0,0,1,.31-.23,2.24,2.24,0,0,1,.51,0,5.76,5.76,0,0,0,1.38-.11c0-.23,0-.45,0-.67a.15.15,0,0,1,.15-.15c.22-.05.43-.12.65-.16a.79.79,0,0,1,.67.05.31.31,0,0,0,.32,0,.53.53,0,0,1,.24-.08,1,1,0,0,0,.55-.12.3.3,0,0,1,.21,0c.24.13.53.11.74.31a.42.42,0,0,0,.28.07,1,1,0,0,1,.68.18,2,2,0,0,0,.22.08c.32.12.66.08,1,.23a.58.58,0,0,0,.27,0l1.11,0h.16c.2,0,.39-.06.47.19.28.19.43.53.73.7a.59.59,0,0,0,.35.12,1.22,1.22,0,0,1,.7.13c.1.06.22.13.34,0s.09,0,.13,0l.83.22a3.52,3.52,0,0,1,.45.18c.24.13.48.28.73.4a2.24,2.24,0,0,0,.46.19,2.81,2.81,0,0,0,1,.16.62.62,0,0,1,.52.12.6.6,0,0,0-.3-.7l-1.72-.66h0c-.12-.24-.41-.22-.57-.39s-.2-.22-.09-.38a1.13,1.13,0,0,0,0-.18s.06-.1.08-.1c.29,0,.54-.26.86-.18a1.25,1.25,0,0,0,.51,0,.62.62,0,0,1,.47.16,36.63,36.63,0,0,1,5.71,5.63l.12.2-.29,0a.5.5,0,0,0,.12.56.37.37,0,0,1,.12.26.65.65,0,0,0,.06.23c0,.09.07.18.12.31a.85.85,0,0,1-.2,0,1.77,1.77,0,0,1-.71-.53c-.17-.16-.33-.32-.49-.5s-.32-.36-.48-.55a3.79,3.79,0,0,0-.38-.42,4.88,4.88,0,0,1-.65-.79.51.51,0,0,1-.06-.21v-.24c-.15-.07-.3-.12-.43-.19a2.41,2.41,0,0,1-.37-.25.9.9,0,0,0,.2.91.63.63,0,0,1,0,.74l-.18.24a2.76,2.76,0,0,1-.24.23l-.51-.2a3.81,3.81,0,0,0,.75,1.06s.09.11.14.16.22.19.34.14.07-.18.08-.29c.17-.1.26,0,.34.13s.41.47.61.72.43.56.65.83a1,1,0,0,0,.37.3.84.84,0,0,1,.39.32,4.94,4.94,0,0,0,.34.41,1.53,1.53,0,0,1,.16.22c.17.31.15.42-.1.67s-.23.28-.41.26c-.08.13-.15.22-.23.34.1.12,0,.25-.06.35.17.27.33.51.51.75a.71.71,0,0,0,.26.18.66.66,0,0,0,.15.05c.22.09.22.14.1.35a.79.79,0,0,1-.51.41,1.31,1.31,0,0,0-.09-.28.58.58,0,0,0-.17-.18c-.09-.06-.17,0-.2.1s-.34.37-.29.66a.8.8,0,0,0,.05.21c.06.17,0,.21-.1.31a.72.72,0,0,0-.37.66.36.36,0,0,1,0,.21.23.23,0,0,0,0,.29.41.41,0,0,1,0,.19,1,1,0,0,0,0,.6,1,1,0,0,1,0,.91c-.09.14-.13.3-.28.39s-.07.16-.11.24-.15.32-.24.48a1,1,0,0,0,0,.76.37.37,0,0,1,0,.17c0,.23.13.39.2.58s.07.12.07.17a1.15,1.15,0,0,0,.22.65l0,0a3.15,3.15,0,0,1,0,.92.27.27,0,0,1-.28-.14c-.12-.26-.26-.51-.39-.77a1.69,1.69,0,0,1-.11-.27c-.05-.24-.11-.49-.18-.76-.1,0-.29,0-.27-.27a.69.69,0,0,1-.51-.21.21.21,0,0,0-.16-.06h-.58s-.05.06-.06.09a.4.4,0,0,1-.67.24c-.15-.1-.3-.05-.44-.08a.39.39,0,0,0-.39.13c-.12.13-.28.22-.41.34a.85.85,0,0,0-.28.75.15.15,0,0,0,0,.1,1.12,1.12,0,0,1,.1.72c0,.38,0,.76,0,1.14a3.06,3.06,0,0,0,.13.6,1,1,0,0,1,.12.47s0,0,0,0c.27.18.23.51.38.74a1.84,1.84,0,0,0,.34.27l-.05.06h1a1.29,1.29,0,0,0,.2-.81.61.61,0,0,1,.66-.63l.19,0c.21,0,.33.21.21.39a.87.87,0,0,0-.1.45,3.57,3.57,0,0,1-.09.8,3.34,3.34,0,0,0,0,.95.18.18,0,0,0,.11.13.66.66,0,0,0,.47.11h.24a.6.6,0,0,1,.6.63,8.42,8.42,0,0,1,0,.87,5.07,5.07,0,0,1-.09.54.42.42,0,0,0,0,.16c.08.27.17.55.26.82a.54.54,0,0,0,.4.33.24.24,0,0,0,.19,0,.49.49,0,0,1,.59,0,.38.38,0,0,0,.36,0,.33.33,0,0,0,.18-.29.84.84,0,0,1,.47-.76.37.37,0,0,0,.19-.26c.09-.31.16-.34.48-.33a.22.22,0,0,1,.24.17c.06.16.15.32.22.48a.62.62,0,0,0,.42.35l.28.11s.08,0,.1,0c.27-.14.43.1.61.19a.67.67,0,0,1,.29.58.36.36,0,0,0,.08.19,1,1,0,0,1,.3.62.47.47,0,0,0,.45.43.33.33,0,0,1,.17.07,1.71,1.71,0,0,1,.51,1.19c0,.25,0,.51,0,.75a3,3,0,0,0,0,.52,3.69,3.69,0,0,0,.17.5.4.4,0,0,0,.13,0c.13,0,.18.07.21.19a1.05,1.05,0,0,0,.45.68.69.69,0,0,1,.34.59,1.36,1.36,0,0,0,.15.47.47.47,0,0,1,0,.35,1.64,1.64,0,0,0-.05.32,3.16,3.16,0,0,1-.23,1,2.07,2.07,0,0,0,0,.22c0,.07,0,.18-.06.23a1.77,1.77,0,0,0-.34.77c-.09.22-.2.42-.29.64a.47.47,0,0,0-.06.2,2.06,2.06,0,0,1-.24.87,1.77,1.77,0,0,0-.15.46,10,10,0,0,1-.51,1.32c-.14.32-.27.64-.43.95a1.53,1.53,0,0,1-.32.36,1.17,1.17,0,0,0-.47.65c-.32,0-.37.28-.5.47a5.23,5.23,0,0,0-.5,1,2,2,0,0,1-.44.73c-.06.06-.09.15-.15.22s-.13.19-.2.29l-.12.23a.39.39,0,0,1-.08.14,4.75,4.75,0,0,0-.58.83,3.71,3.71,0,0,1-.39.48.32.32,0,0,1-.13.08.78.78,0,0,0-.57.55,1.75,1.75,0,0,1-.28.52,1.78,1.78,0,0,1-.28.38,1.05,1.05,0,0,1-.67.37c-.08,0-.17.09-.23.17s-.19.35-.29.51a.47.47,0,0,1-.36.24.28.28,0,0,0-.28.26,1.51,1.51,0,0,1-.15.28l-.6.81a.93.93,0,0,1-.18.16l-.32.29a.4.4,0,0,0-.16.38.37.37,0,0,1-.16.35l-.86.82c-.14.14-.31.27-.29.5,0,0,0,.08-.05.12a.8.8,0,0,0-.2.52.26.26,0,0,1-.2.26l-.24.11a.45.45,0,0,1-.46,0,.43.43,0,0,1-.18-.43,3.48,3.48,0,0,1,.29-.68l.14-.29a4.53,4.53,0,0,1,.62-.82.07.07,0,0,1,0,0,10.71,10.71,0,0,1,.81-1.25,5.93,5.93,0,0,1,.36-.65,9.45,9.45,0,0,0,.53-.86c.08-.15.12-.32.2-.46a1.74,1.74,0,0,1,.18-.33c.11-.17.23-.33.34-.48s.28-.42.43-.63c0,0,0,0,0-.07.07-.38.37-.64.49-1s.21-.52.31-.79.26-.62.4-.93.2-.36.28-.55.23-.65.35-1,.24-.62.34-.93.12-.42.18-.62.13-.54.22-.8a1,1,0,0,0-.15-.74c-.15-.25-.33-.49-.5-.73,0,0-.08-.08-.08-.11,0-.23-.09-.43,0-.67a1,1,0,0,0-.05-.64.83.83,0,0,1,0-.32c0-.26-.05-.52-.09-.78a1.54,1.54,0,0,1,0-.3,4.3,4.3,0,0,0-.13-1l0-.08a2,2,0,0,1-.23-1,.38.38,0,0,1,.1-.3,1.38,1.38,0,0,0,.25-.42,1,1,0,0,0,0-.39s-.06-.1,0-.15c0-.29.1-.58.17-.87a1.52,1.52,0,0,0,.06-.2,1.21,1.21,0,0,1,.23-.56,2.6,2.6,0,0,0,.16-.34,2,2,0,0,1,.16-.36,1.59,1.59,0,0,0,.32-.94,5.86,5.86,0,0,0,0-.84,3.26,3.26,0,0,0-.14-.6A4.43,4.43,0,0,0,461.05,363.36Z" transform="translate(-396.72 -326.03)"/><path class="cls-8" d="M415.63,335.33a.63.63,0,0,0,.54,0s.07-.05.09,0c.24.12.44-.06.66-.07a3.54,3.54,0,0,0,.45-.08.32.32,0,0,0,.14,0l.57-.39a.16.16,0,0,0,0-.27c-.1-.12-.19-.25-.29-.38a1.65,1.65,0,0,1,.6-.49,1,1,0,0,1,.55-.13.43.43,0,0,1,.41.65c-.06.12-.13.23-.19.34a.29.29,0,0,0,.3.18c.08,0,.18,0,.27,0a.57.57,0,0,1,.48.16.38.38,0,0,0,.29.1c.16,0,.33,0,.49,0a.66.66,0,0,0,.21,0,1.18,1.18,0,0,1,.61-.11.8.8,0,0,1,.42.11,1.19,1.19,0,0,0,.79.12,1.63,1.63,0,0,1,.54,0,.86.86,0,0,0,.57-.06.53.53,0,0,1,.46,0c.21.1.27.07.43-.09a.42.42,0,0,1,.22-.08l1.92-.15a1.51,1.51,0,0,1,.3,0c.13,0,.26,0,.32-.13a.1.1,0,0,1,.07-.06,1.32,1.32,0,0,1,.94.13l.12.07c.26.07.29.11.29.38a.42.42,0,0,1,0,.16c-.15.22,0,.4.09.59a1,1,0,0,0,.46.42,1.1,1.1,0,0,1,.25.19.71.71,0,0,1-.65.39.42.42,0,0,0-.21.06.64.64,0,0,1-.49,0c-.26-.09-.55-.1-.75-.32h-.79c-.11,0-.15.09-.14.19s0,.12,0,.19,0,.24-.24.28a7,7,0,0,0-.78.13,1.39,1.39,0,0,0-.28.12c-.12.05-.25.07-.37.12a3.3,3.3,0,0,0-.57.34c-.18.17-.43.15-.63.27,0,0-.09,0-.13,0a.52.52,0,0,0-.56,0,.53.53,0,0,1-.18.05l-.74.13a.44.44,0,0,0-.17.08,2.43,2.43,0,0,0-.25.2.59.59,0,0,0-.24.53c0,.12,0,.26,0,.4a.25.25,0,0,1-.16.28.66.66,0,0,0-.34.43.46.46,0,0,1-.29.27c-.18.07-.35.13-.43.34a.51.51,0,0,1-.19.22c-.19.11-.28.3-.42.45a4.65,4.65,0,0,1-.49.43c0-.15-.05-.24-.06-.33,0-.41,0-.82,0-1.23a.82.82,0,0,1,.27-.58,1.18,1.18,0,0,1,.26-.24s.07,0,.08,0c.11-.3.41-.35.65-.47a1.06,1.06,0,0,0,.42-.39.26.26,0,0,1,.23-.16.58.58,0,0,0,.37-.15c.19-.12.39-.22.58-.33s.09,0,.12-.08a3,3,0,0,0,.26-.54c-.14-.06-.22,0-.27.05-.25.29-.63.39-.92.66a.8.8,0,0,0-.63-.19.77.77,0,0,0-.59.29,2.43,2.43,0,0,1-.34.3.39.39,0,0,0-.19.23.39.39,0,0,1-.39.24.55.55,0,0,0-.34.06.15.15,0,0,1-.16,0A1,1,0,0,0,418,339a3,3,0,0,1-.89.09,1.24,1.24,0,0,0-.84.32l-.83.67c-.18.15-.36.31-.55.45s-.27.18-.4.27a2.42,2.42,0,0,0,.12.23.25.25,0,0,0,.32.12.3.3,0,0,1,.4.12c.05.06.11.12.15.18h.07c.09-.06.19-.17.29-.08s.05.18.05.27a.89.89,0,0,1-.07.28c0,.07,0,.14-.05.21s0,.2,0,.3a.68.68,0,0,1-.31.72.5.5,0,0,0-.2.42c0,.17,0,.34,0,.51l-.37.15c-.09-.06-.07-.14,0-.21a3,3,0,0,0,.22-.89c-.17,0-.28-.05-.33.11a.27.27,0,0,1-.1.13c-.27.26-.46.57-.71.85a3.21,3.21,0,0,0-.19.31,5.36,5.36,0,0,0-.4.43,4.13,4.13,0,0,1-.69.75.74.74,0,0,1-.5.24.78.78,0,0,0-.61.29s-.1.06-.15.11a.44.44,0,0,0-.13.14,1.47,1.47,0,0,1-.71.87c-.17.12-.18.19-.12.4a2.45,2.45,0,0,1,.18.81,1.56,1.56,0,0,1-.42,1c-.13.13-.31.1-.46.11s-.09-.07-.09-.11a.54.54,0,0,1,0-.22c.06-.3.12-.59.19-.9a.49.49,0,0,1-.23-.46,1.56,1.56,0,0,0-.13-.38.92.92,0,0,0-.26.05c-.11.1-.19.11-.32,0s-.29-.06-.4.08a1.26,1.26,0,0,1-.24.22.25.25,0,0,0,0,.4l.15.21.14-.07a.26.26,0,0,1,.32.13.2.2,0,0,1-.14.26c-.11,0-.15.08-.19.18a1.09,1.09,0,0,1-.23.3c-.29.27-.32.38-.18.76a.59.59,0,0,1,0,.23,1.21,1.21,0,0,0,.1.56.38.38,0,0,1,0,.21c-.06.21-.13.41-.2.63.16.09.13.22.05.37a2.68,2.68,0,0,0-.21.49,5.35,5.35,0,0,1-.44.9,7.67,7.67,0,0,0-.36.77c-.05.12-.06.27-.22.31s-.09.09-.13.13-.31.36-.47.53-.05.07-.08.07c-.21,0-.32.19-.48.29l-.05,0c-.11.23-.37.26-.54.4a2.51,2.51,0,0,0-.32.33c-.1,0-.05-.15-.1-.23s-.3,0-.43.18c-.38.46-.25,1-.25,1.52,0,0,0,.09.06.14a5,5,0,0,1,.3.81,6.25,6.25,0,0,1,0,1c0,.06,0,.11,0,.17a1.85,1.85,0,0,1-.36,1.15c-.11.18-.26.31-.36.5s-.09.09-.14.13a.12.12,0,0,0-.06,0,5.13,5.13,0,0,0-.28-.72c-.08-.19-.17-.36-.23-.54s-.14-.19-.27-.27a1.22,1.22,0,0,0-.11.24c0,.06,0,.13,0,.18s-.11.1-.16.09-.08-.07-.12-.11a.17.17,0,0,1,0-.1c0-.42,0-.82,0-1.23a.77.77,0,0,0-.27-.6l-.19.08s-.05-.05-.05-.07,0-.25,0-.38c0-.32,0-.64,0-1a.77.77,0,0,0,0-.26,1.09,1.09,0,0,1-.1-.5c0-.18,0-.23-.23-.25H401a3.64,3.64,0,0,1-.15.59.6.6,0,0,1-.16.24,1.1,1.1,0,0,0-.26.43,4.17,4.17,0,0,1-.29.65c0,.05-.08.09-.07.14a.62.62,0,0,1-.12.35,5.55,5.55,0,0,0-.24.56.51.51,0,0,0,0,.21c0,.25,0,.49,0,.74s-.05.33-.07.5a1,1,0,0,0,0,.25,1.26,1.26,0,0,1-.11.63c0,.06,0,.16,0,.24s-.07.09-.11.13-.08-.06-.09-.11a3.26,3.26,0,0,1-.12-.83c0-.44-.08-.88-.1-1.32s0-1,0-1.5a2,2,0,0,1,.05-.34c0-.12.07-.23,0-.33a.24.24,0,0,1,0-.3.74.74,0,0,0,.09-.33.25.25,0,0,0-.14-.27.22.22,0,0,1-.06-.21.94.94,0,0,0,0-.66,1.21,1.21,0,0,1,0-.43s0-.1,0-.18a1.46,1.46,0,0,1-.22,0,1.67,1.67,0,0,1-.3-.08.29.29,0,0,0-.3,0,.26.26,0,0,0-.09.28,3,3,0,0,0,.13.35,1.35,1.35,0,0,1,0,.95,1.39,1.39,0,0,0-.06.19c0,.14,0,.28-.11.38a.08.08,0,0,0,0,.08,1.8,1.8,0,0,1-.14.76c0,.16-.12.31-.15.48a1.26,1.26,0,0,1-.16.54c-.2.29-.2.64-.37.94a4.51,4.51,0,0,1,0-.52,36.18,36.18,0,0,1,7.59-19.18,37.13,37.13,0,0,1,2.61-3l.25-.24a2.56,2.56,0,0,0,.11.24l.44-.08a.35.35,0,0,0,.13-.08l.52-.55a.51.51,0,0,1,.45-.16c0-.23.21-.31.38-.39a5.2,5.2,0,0,1,.53-.26c.34-.12.63-.39,1-.39a.13.13,0,0,0,.09,0c.06-.19.23-.18.39-.23a2,2,0,0,0,.38-.3c0-.21,0-.21-.21-.23s-.2,0-.25-.15l.36-.29a.17.17,0,0,1,.24.05c.11.13.24.23.45.08,0,.14.06.24.09.35a.61.61,0,0,0,.46.09.3.3,0,0,1,.23,0,.24.24,0,0,1,0,.3.28.28,0,0,0-.06.29.66.66,0,0,1,.6,0,.14.14,0,0,0,.11,0c.27-.09.54-.18.81-.29a1.53,1.53,0,0,1,.82-.05s.08.09.08.15A.5.5,0,0,1,415.63,335.33Z" transform="translate(-396.72 -326.03)"/><path class="cls-8" d="M410.31,381.41c-.36-.12-.36-.12-1.05.26a1.68,1.68,0,0,1-.3-.15.66.66,0,0,1-.34-.59,2,2,0,0,0-.29-.83c-.09-.17-.2-.34-.28-.52s-.08-.25-.14-.37l-.52-.95c0-.07,0-.16-.07-.23s0-.15-.07-.17c-.2-.1-.16-.27-.17-.43a2.89,2.89,0,0,0-.08-.5,1.06,1.06,0,0,1,.05-.87,1,1,0,0,0,.05-.32,5.34,5.34,0,0,0,.9-.51.7.7,0,0,0,.26-.74.5.5,0,0,1,.18-.52c.2-.12.2-.29.25-.45a4.81,4.81,0,0,1,.2-.53c.13-.28.3-.33.55-.14s.27.1.37-.08a.44.44,0,0,0,.1-.26.48.48,0,0,1,.21-.44l.08-.09c-.08-.12-.17-.23-.27-.37a4.64,4.64,0,0,1,.48,0,.34.34,0,0,1,.19.07,1.56,1.56,0,0,0,.68.31.79.79,0,0,1,.34.15.29.29,0,0,1,.07.19c0,.25-.06.51-.11.77a.53.53,0,0,0,.29.56.4.4,0,0,1,.16.12,1.63,1.63,0,0,0,.64.61.32.32,0,0,0,.49-.21.71.71,0,0,0,0-.5.93.93,0,0,1,0-.24,2,2,0,0,0,0-.35,1.86,1.86,0,0,1,0-1.07c0-.07,0-.16,0-.24a.26.26,0,0,1,.1-.16c.09,0,.12,0,.16.11.09.24.21.48.3.72a1,1,0,0,1,.08.29.52.52,0,0,0,.26.44.85.85,0,0,1,.39.65,2,2,0,0,0,.21.63c.13.25.22.53.33.8s.14.25.21.37a.21.21,0,0,0,.11.08c.26,0,.32.25.43.43s.3.49.44.74a.43.43,0,0,0,.11.12c.15,0,.2.14.25.26a3.16,3.16,0,0,0,.53.78c.1.1.18.22.29.31a.74.74,0,0,1,.18.49,2.1,2.1,0,0,0,.21.78,1.18,1.18,0,0,1,.16.59,2.85,2.85,0,0,0,0,.65,2.47,2.47,0,0,1-.17,1,4,4,0,0,0-.2,1.38c0,.11,0,.23,0,.35a.17.17,0,0,1-.2.2.48.48,0,0,0-.45.17.22.22,0,0,1-.3.05.72.72,0,0,0-.47-.1,1.65,1.65,0,0,1-1.2-.57.39.39,0,0,1-.13-.23.78.78,0,0,0-.27-.43,1.66,1.66,0,0,1-.31-.39.54.54,0,0,0-.56-.31l-.23,0a4.12,4.12,0,0,0-.81-1,.48.48,0,0,0-.15-.11c-.18-.08-.37-.14-.54-.22a.32.32,0,0,0-.34,0,.41.41,0,0,1-.22.07,1.26,1.26,0,0,0-.57.14c-.05,0-.08.1-.12.13Z" transform="translate(-396.72 -326.03)"/><path class="cls-8" d="M410.27,368l-.31-.5a.23.23,0,0,0,0-.36.55.55,0,0,1-.13-.51.3.3,0,0,1,.39-.27.56.56,0,0,1,.45.52v.47c.4.1.53.05.67-.28s.19-.23.37-.12l.63.4.08,0c.25,0,.38.17.54.3s.32.17.46.28a4.23,4.23,0,0,1,.5.45.54.54,0,0,1,.11.18c.09.14.12.33.32.39a.53.53,0,0,1,.24.17c.09.11.2.22.12.41s.06.47.18.67a4.19,4.19,0,0,0,.48.63c.1.11.14.28.29.37s0,.14,0,.19-.1.05-.16,0a1.21,1.21,0,0,1-.25-.08s0,0,0,0c-.56-.09-.78-.53-1-1a.45.45,0,0,0-.69-.07,1.53,1.53,0,0,0-.16.37.15.15,0,0,1-.21.1,1.57,1.57,0,0,1-.76-.43c-.05-.08-.23-.08-.35-.08s-.21,0-.26-.1a.29.29,0,0,1,0-.31.33.33,0,0,0,0-.4.88.88,0,0,1-.05-.29.6.6,0,0,0-.31-.5,2.63,2.63,0,0,1-.73-.5C410.59,368.06,410.46,367.94,410.27,368Z" transform="translate(-396.72 -326.03)"/><path class="cls-8" d="M404.73,365.07a1,1,0,0,1,.29-.53,3.64,3.64,0,0,0,.37-.59c.15-.29.28-.6.44-.88a.37.37,0,0,1,.21-.18c.12,0,.17.09.2.19a.33.33,0,0,0,.11.15c.21.14.17.33.12.51a1.27,1.27,0,0,1-.13.32.84.84,0,0,0,0,.84.8.8,0,0,1,.05.21c0,.05,0,.12,0,.16.15.19.08.34,0,.51a.44.44,0,0,0-.09.27,1.07,1.07,0,0,1-.13.68.44.44,0,0,0,0,.21c0,.2,0,.41,0,.62s-.1.22-.2.29a.19.19,0,0,1-.22,0,1.13,1.13,0,0,0-.73-.34.18.18,0,0,1-.19-.14,1.66,1.66,0,0,1-.13-.52,2.5,2.5,0,0,0-.16-.43c-.08-.25-.13-.52-.2-.78s.08-.29.2-.38A1.73,1.73,0,0,1,404.73,365.07Z" transform="translate(-396.72 -326.03)"/><path class="cls-8" d="M413.84,346.09c0-.12.07-.21.11-.3a.61.61,0,0,1,.07-.1,1.93,1.93,0,0,0,.54-.79c0-.06.06-.12.09-.17s.19-.08.23,0,.23.22.36.31a.31.31,0,0,1,.12.45.68.68,0,0,1-.23.18.92.92,0,0,0-.31.2.4.4,0,0,1-.22,0l-.3,0-.15.31a.4.4,0,0,1,0,.42s0,.1,0,.15a.5.5,0,0,1,0,.46c-.08.14-.17.26-.24.39a1.34,1.34,0,0,0-.17.37c0,.24-.21.45-.17.71a.13.13,0,0,1,0,.1c-.15,0-.19.22-.29.27s-.4.36-.7.32c-.08,0-.16.07-.23.13a3.32,3.32,0,0,0-.28.26s-.1.1-.15.1-.29.1-.43.19a.58.58,0,0,1-.42.18c-.1,0-.15.05-.18.15a3.17,3.17,0,0,1-.14.4.55.55,0,0,1-.16.18c-.13.1-.26.05-.27-.11,0-.39-.07-.78.32-1.05.15-.1.21-.31.36-.41s.32-.37.6-.36a.25.25,0,0,0,.14-.08.63.63,0,0,1,.4-.19c.08,0,.18-.12.23-.21a.68.68,0,0,1,.39-.31.77.77,0,0,0,.53-.57c0-.05,0-.11,0-.13a1.6,1.6,0,0,0,.36-.74,2.1,2.1,0,0,1,.13-.26C413.93,346.31,413.93,346.31,413.84,346.09Z" transform="translate(-396.72 -326.03)"/><path class="cls-8" d="M401.84,363.42a.75.75,0,0,1,.4.38,2.69,2.69,0,0,0,.16.29c.14,0,.15-.1.15-.18a5.47,5.47,0,0,0,0-.81,7.23,7.23,0,0,0-.21-.8,1.22,1.22,0,0,1,0-.84c.05.08.1.11.11.15,0,.29.09.58.15.88a.33.33,0,0,0,.08.19,2.35,2.35,0,0,1,.43.83,2.45,2.45,0,0,1,.12,1,.8.8,0,0,0,.09.39.54.54,0,0,1,0,.51.39.39,0,0,0,0,.39.34.34,0,0,1,.07.15,2.08,2.08,0,0,0,.62,1.4,1.19,1.19,0,0,0,0,.89c0,.1.1.2,0,.27a.25.25,0,0,1-.32-.07,2.8,2.8,0,0,1-.25-.35c-.13-.23-.27-.45-.38-.68a1.78,1.78,0,0,1-.13-.49,5,5,0,0,0-.4-1.14.44.44,0,0,1,0-.17s0-.1,0-.12-.12-.39-.19-.57l-.06-.24a1.59,1.59,0,0,0-.07-.2,5.68,5.68,0,0,1-.28-.55A.54.54,0,0,1,401.84,363.42Z" transform="translate(-396.72 -326.03)"/><path class="cls-8" d="M425.06,385.38a.88.88,0,0,0-.06-.23.6.6,0,0,1-.09-.49c0-.13,0-.26,0-.38a.5.5,0,0,0-.12-.35,6,6,0,0,1-.35-.61c0-.05,0-.12,0-.19s.13,0,.17,0a.58.58,0,0,1,.19.25.87.87,0,0,0,.53.53l.61.26a.27.27,0,0,1,.14.42,1.33,1.33,0,0,1-.21.26.67.67,0,0,0-.15.42c0,.34-.24.46-.55.3l-.07,0c0,.12-.06.24-.1.35a1.57,1.57,0,0,1-.19.33,4.91,4.91,0,0,1-.39.54.46.46,0,0,0-.1.24.57.57,0,0,1-.36.47.34.34,0,0,1-.34,0l-.4-.17a.29.29,0,0,1-.11-.4c.11-.17.19-.36.42-.43s.19-.16.28-.25a1.43,1.43,0,0,0,.45-.68.28.28,0,0,1,.3-.22Z" transform="translate(-396.72 -326.03)"/><path class="cls-8" d="M407.76,365.57l.25-.16c-.05.2-.08.32-.13.49l-.89,0c0,.35.06.44.36.45a.25.25,0,0,1,.27.18.22.22,0,0,1-.12.27c-.14.09-.15.18-.1.35s.08.35.13.52a1.73,1.73,0,0,0,.18.39.39.39,0,0,1,0,.39c0,.08-.12.13-.19,0s-.12-.12-.22-.09a.22.22,0,0,0-.19.17s-.05,0-.07.05a.36.36,0,0,1-.22-.37,1.51,1.51,0,0,0-.21-.77.42.42,0,0,1,0-.25c0-.13.08-.26.08-.39a1.77,1.77,0,0,1,.12-.64.62.62,0,0,0,0-.36.32.32,0,0,1,.39-.4,2.35,2.35,0,0,0,.26,0A1.86,1.86,0,0,1,407.76,365.57Z" transform="translate(-396.72 -326.03)"/><path class="cls-8" d="M460.83,356.32a2.49,2.49,0,0,0,.67.77,1.08,1.08,0,0,1,.26.3c.06.07,0,.19-.12.22a3.1,3.1,0,0,1-.43,0s-.07,0-.07,0c0-.22-.3-.3-.32-.54s-.14-.19-.24-.24-.41-.24-.62-.38a.41.41,0,0,0-.45,0,.58.58,0,0,1-.19,0c0-.07,0-.17,0-.21s.27-.39.54-.32a1.32,1.32,0,0,1,.48.22A.67.67,0,0,0,460.83,356.32Z" transform="translate(-396.72 -326.03)"/><path class="cls-8" d="M407.71,359.83c-.17-.14-.31-.35-.54-.16,0,.11-.05.22-.07.34H407a.5.5,0,0,1-.08-.14c0-.11,0-.22,0-.33s0-.27-.09-.38a.13.13,0,0,1,0-.1,2.61,2.61,0,0,1,.07-.92,6.3,6.3,0,0,0,.18-.75c0-.07.05-.17.09-.18a.27.27,0,0,1,.21.07.42.42,0,0,1,.15.3,1.32,1.32,0,0,1-.18.83c-.14.21-.07.43-.06.66,0,0,.1.08.15.13a2.44,2.44,0,0,1,.29.27C407.82,359.57,407.8,359.69,407.71,359.83Z" transform="translate(-396.72 -326.03)"/><path class="cls-8" d="M405.61,369.27c-.09.28.15.32.28.44s.1,0,.12.05.1.12.09.17a.19.19,0,0,1-.15.11,3.31,3.31,0,0,1-.77-.17,2.8,2.8,0,0,0-.84-.34s-.1,0-.11-.06A3,3,0,0,1,404,369a.17.17,0,0,1,.19-.2.49.49,0,0,1,.25.12.58.58,0,0,0,.57.17C405.21,369,405.38,369.2,405.61,369.27Z" transform="translate(-396.72 -326.03)"/><path class="cls-8" d="M407.23,362.38l.25-.46a.5.5,0,0,1,.17-.11,3.92,3.92,0,0,0,.36-.16c.15-.09.25,0,.29.13s.06.29.1.44a.57.57,0,0,1-.15.55c-.07.08-.13.14-.1.26a.17.17,0,0,1-.13.21.25.25,0,0,1-.27-.14,2.35,2.35,0,0,1-.15-.42c0-.16-.08-.23-.23-.24Z" transform="translate(-396.72 -326.03)"/><path class="cls-8" d="M407.63,360.1H408c.15.1.14.28.1.46a2.47,2.47,0,0,0-.06.29.63.63,0,0,1-.33.54s-.05.09-.09.12-.08.09-.11.08-.09,0-.11-.1a.65.65,0,0,1,0-.16c-.05-.13-.09-.27-.14-.4a1.35,1.35,0,0,1,0-.18c0-.12,0-.19.17-.2a2.26,2.26,0,0,0,.29,0C407.76,360.34,407.48,360.23,407.63,360.1Z" transform="translate(-396.72 -326.03)"/><path class="cls-8" d="M461.86,358.31l.13-.07c.07,0,.18,0,.21-.09s0-.14,0-.21,0-.17.08-.21a.48.48,0,0,1,.69.26c.05.12.16.1.23.18a.2.2,0,0,1-.15.24s-.11,0-.14,0c-.18.26-.42.16-.66.12A.51.51,0,0,1,461.86,358.31Z" transform="translate(-396.72 -326.03)"/><path class="cls-8" d="M462.34,344.69c.12.14.18.25.27.35a1.24,1.24,0,0,1,.3.41c.07.15,0,.34-.2.29a1.14,1.14,0,0,1-.61-.23s-.09-.08-.09-.13a1.18,1.18,0,0,0-.12-.54c-.05-.09,0-.19.16-.19Z" transform="translate(-396.72 -326.03)"/><path class="cls-8" d="M417.64,385.35c-.05.11-.08.22-.13.31s-.24.21-.42,0a3,3,0,0,1-.46-.65.2.2,0,0,1,0-.17.31.31,0,0,1,.19-.06h.46a.37.37,0,0,1,.21.09A4.48,4.48,0,0,1,417.64,385.35Z" transform="translate(-396.72 -326.03)"/><path class="cls-8" d="M415.88,368.48a.38.38,0,0,1,0,.52c-.15.17-.32.31-.47.47a.21.21,0,0,1-.3,0,1.25,1.25,0,0,1-.25-.34c0-.1,0-.18.15-.19h.3l.19-.36Z" transform="translate(-396.72 -326.03)"/><path class="cls-8" d="M407.74,354.2a.85.85,0,0,1,0,.16,2.74,2.74,0,0,1-.09.39,2.86,2.86,0,0,1-.2.48c-.06.12-.18.11-.22,0a1,1,0,0,1,.45-1Z" transform="translate(-396.72 -326.03)"/><path class="cls-8" d="M408.69,370.12s.11,0,.13.08a.2.2,0,0,1,0,.18c-.13.14-.28.28-.42.41a.23.23,0,0,1-.2,0,.18.18,0,0,1,0-.16,1,1,0,0,1,.46-.51Z" transform="translate(-396.72 -326.03)"/><path class="cls-8" d="M435.29,357.17a.56.56,0,0,1-.25.42c-.17.13-.33.07-.37-.15s.05-.31.28-.32h.22Z" transform="translate(-396.72 -326.03)"/><path class="cls-8" d="M405.05,357s0,.07,0,.08a.31.31,0,0,0-.23.26s-.09,0-.12,0a.4.4,0,0,1-.13-.13.59.59,0,0,1,.22-.55C404.89,356.64,405.06,356.82,405.05,357Z" transform="translate(-396.72 -326.03)"/><path class="cls-8" d="M409.6,367.7c0,.11-.06.18-.17.15a2.42,2.42,0,0,1-.46-.13.13.13,0,0,1-.05-.18.36.36,0,0,1,.41-.11A.35.35,0,0,1,409.6,367.7Z" transform="translate(-396.72 -326.03)"/><path class="cls-8" d="M419.12,370.93c-.27,0-.17.28-.28.39-.26-.11-.27-.14-.17-.38a1.42,1.42,0,0,0,0-.2c0-.06.08-.14.13-.14s.13,0,.17.1A1.25,1.25,0,0,1,419.12,370.93Z" transform="translate(-396.72 -326.03)"/><path class="cls-8" d="M399.51,363a2.11,2.11,0,0,1,0-1A.7.7,0,0,1,399.51,363Z" transform="translate(-396.72 -326.03)"/><path class="cls-8" d="M442.68,341.71a2.22,2.22,0,0,1-.22-.11,3.17,3.17,0,0,1-.3-.34.13.13,0,0,1,0-.14s.08-.07.13-.07a.32.32,0,0,1,.2.06A.9.9,0,0,1,442.68,341.71Z" transform="translate(-396.72 -326.03)"/><path class="cls-8" d="M406.65,370.3c-.08,0-.14,0-.17,0a.41.41,0,0,1-.16-.16s.08-.1.13-.14a.23.23,0,0,1,.14-.07.5.5,0,0,1,.24.09s.07.16,0,.18S406.7,370.26,406.65,370.3Z" transform="translate(-396.72 -326.03)"/><path class="cls-8" d="M408.63,365.62v-.06c0-.08,0-.18.09-.2a.18.18,0,0,1,.21.17.72.72,0,0,1,0,.29.27.27,0,0,1-.18.07s-.07-.09-.09-.14A.57.57,0,0,1,408.63,365.62Z" transform="translate(-396.72 -326.03)"/><path class="cls-8" d="M417.14,369.58a.94.94,0,0,1-.43-.6c.15-.07.21,0,.29.13S417.19,369.43,417.14,369.58Z" transform="translate(-396.72 -326.03)"/><path class="cls-8" d="M407.1,370a.7.7,0,0,1,.25,0,.73.73,0,0,1,.26.17s0,.1,0,.12a.35.35,0,0,1-.2.05C407.24,370.35,407.16,370.25,407.1,370Z" transform="translate(-396.72 -326.03)"/><path class="cls-8" d="M418.13,370.2a.15.15,0,0,1,.24,0,1,1,0,0,1,.22.23s0,.09,0,.11-.1.05-.11,0S418.17,370.43,418.13,370.2Z" transform="translate(-396.72 -326.03)"/><path class="cls-8" d="M407.4,370.61c-.09.07-.12.12-.17.13s-.15,0-.13-.12a.13.13,0,0,1,.09-.1C407.24,370.52,407.3,370.57,407.4,370.61Z" transform="translate(-396.72 -326.03)"/><path class="cls-8" d="M417.77,370.33l.2.12c-.06.13-.14.14-.22.08S417.69,370.42,417.77,370.33Z" transform="translate(-396.72 -326.03)"/><path class="cls-8" d="M407.76,370.11c.06-.13.14-.14.23-.08a.14.14,0,0,1,0,.11C407.92,370.22,407.84,370.18,407.76,370.11Z" transform="translate(-396.72 -326.03)"/><path class="cls-8" d="M461.38,358.46c-.07.1-.16.12-.24.05s0-.11,0-.13S461.32,358.38,461.38,358.46Z" transform="translate(-396.72 -326.03)"/><path class="cls-8" d="M406.4,361.19a.74.74,0,0,1,.08.16s-.06.08-.09.11-.07-.06-.07-.1S406.36,361.28,406.4,361.19Z" transform="translate(-396.72 -326.03)"/><path class="cls-8" d="M408.61,367.59c.08.09.11.17,0,.25a.17.17,0,0,1-.12,0C408.46,367.73,408.5,367.65,408.61,367.59Z" transform="translate(-396.72 -326.03)"/><path class="cls-8" d="M397.14,366.15c0,.1,0,.19,0,.3h-.08a2.83,2.83,0,0,0,0-.29Z" transform="translate(-396.72 -326.03)"/><path class="cls-8" d="M434.29,356.51c0,.05.08.07.08.09a.19.19,0,0,1-.05.1s-.07,0-.07-.05S434.26,356.58,434.29,356.51Z" transform="translate(-396.72 -326.03)"/><path class="cls-8" d="M407.6,336.9l.11-.1,0,0-.1.11Z" transform="translate(-396.72 -326.03)"/><path class="cls-8" d="M397.17,366.8v.14h0a.49.49,0,0,1,0-.12.43.43,0,0,1,0-.05Z" transform="translate(-396.72 -326.03)"/><path class="cls-8" d="M397.7,370.3a2.35,2.35,0,0,0-.07-.23h0a.24.24,0,0,1,.06.08A1.54,1.54,0,0,1,397.7,370.3Z" transform="translate(-396.72 -326.03)"/><path class="cls-8" d="M415.78,371l-.08.06-.05,0,.06-.08Z" transform="translate(-396.72 -326.03)"/><path class="cls-8" d="M417.7,369.86s-.06,0-.08,0a.25.25,0,0,1,0-.07l0,0S417.67,369.83,417.7,369.86Z" transform="translate(-396.72 -326.03)"/><path class="cls-8" d="M397.07,365.86a.28.28,0,0,0,0,.09h0a.32.32,0,0,1,0-.09Z" transform="translate(-396.72 -326.03)"/><path class="cls-8" d="M429.31,398.62l0-.05.06,0v0Z" transform="translate(-396.72 -326.03)"/></g><path class="cls-3" d="M406.1,675.13a1.19,1.19,0,0,1-.82-.32,1.12,1.12,0,0,1-.35-.84,1,1,0,0,1,.36-.8,1.19,1.19,0,0,1,.81-.31,1.27,1.27,0,0,1,.83.3,1,1,0,0,1,.36.81,1.1,1.1,0,0,1-.35.82A1.17,1.17,0,0,1,406.1,675.13Zm-.7,19.18V679h1.41v15.31Z" transform="translate(-396.72 -326.03)"/><path class="cls-3" d="M422.55,694.31v-8.92q0-5.5-4.08-5.51a4.82,4.82,0,0,0-3.74,1.62,5.75,5.75,0,0,0-1.46,4v8.79h-1.41V679h1.41v2.78h.07a5.7,5.7,0,0,1,5.37-3.16,4.73,4.73,0,0,1,3.9,1.66A7.26,7.26,0,0,1,424,685v9.32Z" transform="translate(-396.72 -326.03)"/><path class="cls-3" d="M434.92,694.1a5,5,0,0,1-2.07.52q-3.5,0-3.49-4.08V680.26h-2.83V679h2.83v-4c.22-.08.45-.16.7-.23l.71-.24V679h4.15v1.26h-4.15v10.1a4,4,0,0,0,.51,2.3,2,2,0,0,0,1.75.71,4.1,4.1,0,0,0,1.89-.55Z" transform="translate(-396.72 -326.03)"/><path class="cls-3" d="M438.38,686.71a7.46,7.46,0,0,0,1.49,4.93,5.08,5.08,0,0,0,4.11,1.78,8.52,8.52,0,0,0,5.16-1.89V693a9.38,9.38,0,0,1-5.44,1.68,6.23,6.23,0,0,1-4.92-2.12,8.76,8.76,0,0,1-1.88-6,8.39,8.39,0,0,1,2-5.65,6.4,6.4,0,0,1,5.09-2.3,5.36,5.36,0,0,1,4.5,2A8.64,8.64,0,0,1,450,686.1v.61Zm10.17-1.25a6.78,6.78,0,0,0-1.31-4.12,4.12,4.12,0,0,0-3.34-1.46,5,5,0,0,0-3.67,1.44,6.79,6.79,0,0,0-1.79,4.14Z" transform="translate(-396.72 -326.03)"/><path class="cls-3" d="M461.34,680.44a2.74,2.74,0,0,0-1.66-.5,3.68,3.68,0,0,0-3.12,1.87,9.45,9.45,0,0,0-1.26,5.31v7.19h-1.38V679h1.38v3.39h.07a5.46,5.46,0,0,1,1.7-2.72,4.13,4.13,0,0,1,2.71-1,4.05,4.05,0,0,1,1.56.28Z" transform="translate(-396.72 -326.03)"/><path class="cls-3" d="M474.91,694.31v-8.92q0-5.5-4.08-5.51a4.82,4.82,0,0,0-3.74,1.62,5.76,5.76,0,0,0-1.47,4v8.79h-1.4V679h1.4v2.78h.08a5.69,5.69,0,0,1,5.37-3.16,4.73,4.73,0,0,1,3.9,1.66,7.26,7.26,0,0,1,1.35,4.71v9.32Z" transform="translate(-396.72 -326.03)"/><path class="cls-3" d="M490.45,694.31v-3.06h-.05a6.17,6.17,0,0,1-2.19,2.5,5.75,5.75,0,0,1-3.19.93,5,5,0,0,1-3.55-1.22,4,4,0,0,1-1.31-3.1c0-2.67,1.82-4.29,5.46-4.84l4.83-.71c0-3.28-1.27-4.93-3.81-4.93a7.88,7.88,0,0,0-5.05,2v-1.66A7.48,7.48,0,0,1,484,679.1a9.27,9.27,0,0,1,2.82-.48,4.8,4.8,0,0,1,3.76,1.47,6.17,6.17,0,0,1,1.32,4.26v10Zm-4.32-7.63a7.61,7.61,0,0,0-3.48,1.12,3.39,3.39,0,0,0-.07,4.74,3.62,3.62,0,0,0,2.6.88,4.93,4.93,0,0,0,3.77-1.63,6,6,0,0,0,1.5-4.22v-1.5Z" transform="translate(-396.72 -326.03)"/><path class="cls-3" d="M502.82,694.1a5,5,0,0,1-2.07.52q-3.5,0-3.49-4.08V680.26h-2.83V679h2.83v-4c.22-.08.45-.16.7-.23l.71-.24V679h4.15v1.26h-4.15v10.1a4,4,0,0,0,.51,2.3,2,2,0,0,0,1.75.71,4.1,4.1,0,0,0,1.89-.55Z" transform="translate(-396.72 -326.03)"/><path class="cls-3" d="M506.63,675.13a1.17,1.17,0,0,1-.81-.32,1.08,1.08,0,0,1-.35-.84,1,1,0,0,1,.35-.8,1.19,1.19,0,0,1,.81-.31,1.29,1.29,0,0,1,.84.3,1,1,0,0,1,.36.81,1.08,1.08,0,0,1-.36.82A1.14,1.14,0,0,1,506.63,675.13Zm-.69,19.18V679h1.41v15.31Z" transform="translate(-396.72 -326.03)"/><path class="cls-3" d="M518.71,694.68a7,7,0,0,1-5.45-2.2,9.4,9.4,0,0,1,.09-11.71,7.39,7.39,0,0,1,5.53-2.15,6.82,6.82,0,0,1,5.31,2.14,8.47,8.47,0,0,1,1.95,5.92,8.33,8.33,0,0,1-2,5.79A6.92,6.92,0,0,1,518.71,694.68Zm.11-14.8a5.71,5.71,0,0,0-4.44,1.82,7.35,7.35,0,0,0-1.64,5.08,7,7,0,0,0,1.61,4.82,5.55,5.55,0,0,0,4.4,1.82,5.42,5.42,0,0,0,4.38-1.79,8.91,8.91,0,0,0,0-10A5.45,5.45,0,0,0,518.82,679.88Z" transform="translate(-396.72 -326.03)"/><path class="cls-3" d="M540.73,694.31v-8.92q0-5.5-4.08-5.51a4.83,4.83,0,0,0-3.74,1.62,5.8,5.8,0,0,0-1.46,4v8.79H530V679h1.41v2.78h.07a5.71,5.71,0,0,1,5.37-3.16,4.73,4.73,0,0,1,3.9,1.66,7.26,7.26,0,0,1,1.35,4.71v9.32Z" transform="translate(-396.72 -326.03)"/><path class="cls-3" d="M556.28,694.31v-3.06h-.06a6,6,0,0,1-2.19,2.5,5.75,5.75,0,0,1-3.19.93,5,5,0,0,1-3.55-1.22,4.08,4.08,0,0,1-1.31-3.1c0-2.67,1.82-4.29,5.46-4.84l4.84-.71c0-3.28-1.28-4.93-3.82-4.93a7.85,7.85,0,0,0-5,2v-1.66a7.41,7.41,0,0,1,2.36-1.16,9.33,9.33,0,0,1,2.83-.48,4.78,4.78,0,0,1,3.75,1.47,6.17,6.17,0,0,1,1.32,4.26v10ZM552,686.68a7.52,7.52,0,0,0-3.47,1.12,3,3,0,0,0-1,2.51,2.9,2.9,0,0,0,.94,2.23,3.6,3.6,0,0,0,2.59.88,4.91,4.91,0,0,0,3.77-1.63,6,6,0,0,0,1.51-4.22v-1.5Z" transform="translate(-396.72 -326.03)"/><path class="cls-3" d="M562.42,694.31V671.64h1.41v22.67Z" transform="translate(-396.72 -326.03)"/><path class="cls-3" d="M577.8,694.31V672.86h1.53V693h8.83v1.34Z" transform="translate(-396.72 -326.03)"/><path class="cls-3" d="M601.29,694.31v-3.06h0a6,6,0,0,1-2.19,2.5,5.75,5.75,0,0,1-3.19.93,5,5,0,0,1-3.55-1.22,4.08,4.08,0,0,1-1.31-3.1c0-2.67,1.82-4.29,5.46-4.84l4.83-.71c0-3.28-1.27-4.93-3.81-4.93a7.85,7.85,0,0,0-5,2v-1.66a7.31,7.31,0,0,1,2.36-1.16,9.33,9.33,0,0,1,2.83-.48,4.78,4.78,0,0,1,3.75,1.47,6.17,6.17,0,0,1,1.32,4.26v10ZM597,686.68a7.52,7.52,0,0,0-3.47,1.12,3,3,0,0,0-1,2.51,2.93,2.93,0,0,0,.93,2.23,3.62,3.62,0,0,0,2.6.88,4.91,4.91,0,0,0,3.77-1.63,6,6,0,0,0,1.5-4.22v-1.5Z" transform="translate(-396.72 -326.03)"/><path class="cls-3" d="M608.92,691.58h-.07v2.73h-1.41V671.64h1.41v10.51h.07a6.15,6.15,0,0,1,2.41-2.61,6.81,6.81,0,0,1,3.46-.92,5.74,5.74,0,0,1,4.68,2,8.2,8.2,0,0,1,1.69,5.46,9.47,9.47,0,0,1-1.95,6.22,6.28,6.28,0,0,1-5.07,2.36A5.54,5.54,0,0,1,608.92,691.58Zm-.07-5.69v1.93a5.67,5.67,0,0,0,1.49,4,5,5,0,0,0,3.92,1.64,4.67,4.67,0,0,0,3.91-2,8.58,8.58,0,0,0,1.51-5.29,7,7,0,0,0-1.39-4.56,4.54,4.54,0,0,0-3.69-1.69,5.28,5.28,0,0,0-4.25,1.79A6.4,6.4,0,0,0,608.85,685.89Z" transform="translate(-396.72 -326.03)"/><path class="cls-3" d="M631.37,694.68a7,7,0,0,1-5.45-2.2,9.39,9.39,0,0,1,.1-11.71,7.37,7.37,0,0,1,5.52-2.15,6.82,6.82,0,0,1,5.31,2.14,8.47,8.47,0,0,1,2,5.92,8.38,8.38,0,0,1-2,5.79A7,7,0,0,1,631.37,694.68Zm.11-14.8a5.69,5.69,0,0,0-4.43,1.82,7.31,7.31,0,0,0-1.65,5.08A7,7,0,0,0,627,691.6a5.56,5.56,0,0,0,4.4,1.82,5.42,5.42,0,0,0,4.38-1.79,8.91,8.91,0,0,0,0-10A5.45,5.45,0,0,0,631.48,679.88Z" transform="translate(-396.72 -326.03)"/><path class="cls-3" d="M650.12,680.44a2.74,2.74,0,0,0-1.66-.5,3.68,3.68,0,0,0-3.12,1.87,9.45,9.45,0,0,0-1.26,5.31v7.19H642.7V679h1.38v3.39h.07a5.46,5.46,0,0,1,1.7-2.72,4.13,4.13,0,0,1,2.71-1,4.05,4.05,0,0,1,1.56.28Z" transform="translate(-396.72 -326.03)"/><path class="cls-3" d="M662.48,694.31v-3.06h-.05a6.17,6.17,0,0,1-2.19,2.5,5.75,5.75,0,0,1-3.19.93,5,5,0,0,1-3.55-1.22,4,4,0,0,1-1.31-3.1c0-2.67,1.82-4.29,5.46-4.84l4.83-.71c0-3.28-1.27-4.93-3.81-4.93a7.88,7.88,0,0,0-5,2v-1.66A7.48,7.48,0,0,1,656,679.1a9.27,9.27,0,0,1,2.82-.48,4.8,4.8,0,0,1,3.76,1.47,6.17,6.17,0,0,1,1.32,4.26v10Zm-4.32-7.63a7.61,7.61,0,0,0-3.48,1.12,3.39,3.39,0,0,0-.07,4.74,3.62,3.62,0,0,0,2.6.88,4.93,4.93,0,0,0,3.77-1.63,6,6,0,0,0,1.5-4.22v-1.5Z" transform="translate(-396.72 -326.03)"/><path class="cls-3" d="M674.85,694.1a5,5,0,0,1-2.07.52c-2.32,0-3.49-1.36-3.49-4.08V680.26h-2.83V679h2.83v-4c.22-.08.45-.16.7-.23l.71-.24V679h4.15v1.26H670.7v10.1a4,4,0,0,0,.51,2.3,2,2,0,0,0,1.75.71,4.1,4.1,0,0,0,1.89-.55Z" transform="translate(-396.72 -326.03)"/><path class="cls-3" d="M684.28,694.68a7,7,0,0,1-5.44-2.2,9.37,9.37,0,0,1,.09-11.71,7.38,7.38,0,0,1,5.52-2.15,6.82,6.82,0,0,1,5.31,2.14,9.66,9.66,0,0,1,0,11.71A7,7,0,0,1,684.28,694.68Zm.12-14.8A5.71,5.71,0,0,0,680,681.7a7.31,7.31,0,0,0-1.65,5.08,7,7,0,0,0,1.61,4.82,5.58,5.58,0,0,0,4.4,1.82,5.42,5.42,0,0,0,4.38-1.79,8.91,8.91,0,0,0,0-10A5.45,5.45,0,0,0,684.4,679.88Z" transform="translate(-396.72 -326.03)"/><path class="cls-3" d="M703,680.44a2.79,2.79,0,0,0-1.67-.5,3.68,3.68,0,0,0-3.12,1.87,9.45,9.45,0,0,0-1.26,5.31v7.19h-1.38V679H697v3.39h.08a5.45,5.45,0,0,1,1.69-2.72A4.34,4.34,0,0,1,703,679Z" transform="translate(-396.72 -326.03)"/><path class="cls-3" d="M711.75,697.44a9,9,0,0,1-1.89,3.06,3.74,3.74,0,0,1-2.7,1,3.36,3.36,0,0,1-1.22-.21v-1.37a3.63,3.63,0,0,0,1.29.21c1.25,0,2.24-.85,3-2.54l1.47-3.4-6-15.19h1.58L712,691.47l.21.61a3.75,3.75,0,0,0,.13.51h.07l.37-1L717.88,679h1.54Z" transform="translate(-396.72 -326.03)"/><path class="cls-3" d="M737.66,673.08a2.88,2.88,0,0,0-1.72-.43q-2.9,0-2.9,3.8V679h4.17v1.26H733v14h-1.41v-14H728.8V679h2.83v-2.66a5,5,0,0,1,1.25-3.69,4.24,4.24,0,0,1,3.12-1.26,4.15,4.15,0,0,1,1.66.29Z" transform="translate(-396.72 -326.03)"/><path class="cls-3" d="M745.77,694.68a7,7,0,0,1-5.45-2.2,9.4,9.4,0,0,1,.09-11.71,7.39,7.39,0,0,1,5.53-2.15,6.83,6.83,0,0,1,5.31,2.14,8.47,8.47,0,0,1,2,5.92,8.33,8.33,0,0,1-2,5.79A6.92,6.92,0,0,1,745.77,694.68Zm.11-14.8a5.71,5.71,0,0,0-4.44,1.82,7.31,7.31,0,0,0-1.65,5.08,7,7,0,0,0,1.62,4.82,5.55,5.55,0,0,0,4.4,1.82,5.42,5.42,0,0,0,4.38-1.79,8.91,8.91,0,0,0,0-10A5.45,5.45,0,0,0,745.88,679.88Z" transform="translate(-396.72 -326.03)"/><path class="cls-3" d="M764.52,680.44a2.76,2.76,0,0,0-1.66-.5,3.68,3.68,0,0,0-3.12,1.87,9.45,9.45,0,0,0-1.26,5.31v7.19H757.1V679h1.38v3.39h.07a5.46,5.46,0,0,1,1.7-2.72,4.11,4.11,0,0,1,2.71-1,4.05,4.05,0,0,1,1.56.28Z" transform="translate(-396.72 -326.03)"/><path class="cls-3" d="M790.53,694.31V684h-12.6v10.29h-1.52V672.86h1.52v9.82h12.6v-9.82H792v21.45Z" transform="translate(-396.72 -326.03)"/><path class="cls-3" d="M798.08,675.13a1.21,1.21,0,0,1-.82-.32,1.11,1.11,0,0,1-.34-.84,1,1,0,0,1,.35-.8,1.19,1.19,0,0,1,.81-.31,1.27,1.27,0,0,1,.83.3,1,1,0,0,1,.37.81,1.08,1.08,0,0,1-.36.82A1.17,1.17,0,0,1,798.08,675.13Zm-.7,19.18V679h1.41v15.31Z" transform="translate(-396.72 -326.03)"/><path class="cls-3" d="M816.43,693.17c0,2.89-.65,5-1.95,6.33s-3.3,2-6,2a10.71,10.71,0,0,1-4.68-1.17v-1.42a10,10,0,0,0,4.71,1.34q6.51,0,6.51-6.7v-2h0a6.16,6.16,0,0,1-5.68,3.13,6,6,0,0,1-4.73-2,8.27,8.27,0,0,1-1.84-5.71,8.9,8.9,0,0,1,2-6,6.52,6.52,0,0,1,5.22-2.32,5.34,5.34,0,0,1,5,2.8h0V679h1.43ZM815,684.88a4.92,4.92,0,0,0-1.4-3.52,4.82,4.82,0,0,0-3.66-1.48,5.16,5.16,0,0,0-4.18,1.9,7.61,7.61,0,0,0-1.58,5,7.45,7.45,0,0,0,1.45,4.88,4.77,4.77,0,0,0,3.83,1.73,5.28,5.28,0,0,0,4-1.59,5.52,5.52,0,0,0,1.5-3.92Z" transform="translate(-396.72 -326.03)"/><path class="cls-3" d="M832.15,694.31v-9.18a6.39,6.39,0,0,0-1-4,3.84,3.84,0,0,0-3.17-1.26,4.9,4.9,0,0,0-3.57,1.54,6,6,0,0,0-1.53,4.42v8.47h-1.41V671.64h1.41v10.11h.07a5.92,5.92,0,0,1,5.4-3.13,4.75,4.75,0,0,1,3.88,1.6,7,7,0,0,1,1.34,4.59v9.5Z" transform="translate(-396.72 -326.03)"/><path class="cls-3" d="M838,686v-1.36h8.39V686Z" transform="translate(-396.72 -326.03)"/><path class="cls-3" d="M862.38,694.31,859.45,688a6.8,6.8,0,0,0-1.81-2.6,3.74,3.74,0,0,0-2.27-.66h-2.73v9.55h-1.52V672.86h6.12a6.48,6.48,0,0,1,4.58,1.54,5.26,5.26,0,0,1,1.66,4,5.66,5.66,0,0,1-1.37,3.88,6.52,6.52,0,0,1-3.82,2v0c.87.34,1.72,1.37,2.54,3.09l3.27,6.84Zm-9.74-20.08v9.18h3.79a5.91,5.91,0,0,0,4-1.29,4.44,4.44,0,0,0,1.48-3.53,4,4,0,0,0-1.34-3.2,5.69,5.69,0,0,0-3.83-1.16Z" transform="translate(-396.72 -326.03)"/><path class="cls-3" d="M868.61,686.71a7.41,7.41,0,0,0,1.5,4.93,5,5,0,0,0,4.1,1.78,8.53,8.53,0,0,0,5.17-1.89V693a9.41,9.41,0,0,1-5.45,1.68,6.23,6.23,0,0,1-4.92-2.12,8.76,8.76,0,0,1-1.88-6,8.4,8.4,0,0,1,2-5.65,6.37,6.37,0,0,1,5.09-2.3,5.38,5.38,0,0,1,4.5,2,8.7,8.7,0,0,1,1.57,5.47v.61Zm10.17-1.25a6.72,6.72,0,0,0-1.31-4.12,4.1,4.1,0,0,0-3.34-1.46,5,5,0,0,0-3.67,1.44,6.85,6.85,0,0,0-1.79,4.14Z" transform="translate(-396.72 -326.03)"/><path class="cls-3" d="M883.34,693.63V692a6,6,0,0,0,1.94,1.06,6.45,6.45,0,0,0,2,.38c2.47,0,3.7-1,3.7-2.93a2.27,2.27,0,0,0-.81-1.75,9.73,9.73,0,0,0-2.65-1.48,8.91,8.91,0,0,1-3.16-2,3.6,3.6,0,0,1-.92-2.49,3.65,3.65,0,0,1,1.47-3,5.64,5.64,0,0,1,3.62-1.15,7.12,7.12,0,0,1,3.47.8V681a6.68,6.68,0,0,0-3.63-1.11,3.83,3.83,0,0,0-2.5.78,2.78,2.78,0,0,0-.35,3.82,8.19,8.19,0,0,0,2.64,1.56,11.66,11.66,0,0,1,3.38,2,3.3,3.3,0,0,1,.92,2.45,3.77,3.77,0,0,1-1.4,3,5.79,5.79,0,0,1-3.88,1.19A6.54,6.54,0,0,1,883.34,693.63Z" transform="translate(-396.72 -326.03)"/><path class="cls-3" d="M902.68,694.68a7,7,0,0,1-5.44-2.2,9.37,9.37,0,0,1,.09-11.71,7.38,7.38,0,0,1,5.52-2.15,6.85,6.85,0,0,1,5.32,2.14,8.47,8.47,0,0,1,2,5.92,8.33,8.33,0,0,1-2,5.79A6.94,6.94,0,0,1,902.68,694.68Zm.12-14.8a5.71,5.71,0,0,0-4.44,1.82,7.31,7.31,0,0,0-1.65,5.08,7,7,0,0,0,1.61,4.82,5.58,5.58,0,0,0,4.41,1.82,5.45,5.45,0,0,0,4.38-1.79,8.93,8.93,0,0,0,0-10A5.45,5.45,0,0,0,902.8,679.88Z" transform="translate(-396.72 -326.03)"/><path class="cls-3" d="M914,694.31V671.64h1.4v22.67Z" transform="translate(-396.72 -326.03)"/><path class="cls-3" d="M930.85,694.31v-2.78h-.05a5.4,5.4,0,0,1-5.08,3.15q-5.58,0-5.58-6.84V679h1.44v8.51a7.63,7.63,0,0,0,1,4.51,3.87,3.87,0,0,0,3.32,1.4,4.43,4.43,0,0,0,3.54-1.57,6.16,6.16,0,0,0,1.36-4.19V679h1.42v15.31Z" transform="translate(-396.72 -326.03)"/><path class="cls-3" d="M943.54,694.1a5.05,5.05,0,0,1-2.08.52q-3.48,0-3.48-4.08V680.26h-2.83V679H938v-4l.69-.23.71-.24V679h4.16v1.26h-4.16v10.1a4,4,0,0,0,.52,2.3,2,2,0,0,0,1.74.71,4.17,4.17,0,0,0,1.9-.55Z" transform="translate(-396.72 -326.03)"/><path class="cls-3" d="M947.35,675.13a1.17,1.17,0,0,1-.82-.32,1.12,1.12,0,0,1-.35-.84,1,1,0,0,1,.36-.8,1.16,1.16,0,0,1,.81-.31,1.27,1.27,0,0,1,.83.3,1,1,0,0,1,.36.81,1.1,1.1,0,0,1-.35.82A1.17,1.17,0,0,1,947.35,675.13Zm-.7,19.18V679h1.41v15.31Z" transform="translate(-396.72 -326.03)"/><path class="cls-3" d="M959.42,694.68a7,7,0,0,1-5.45-2.2,9.39,9.39,0,0,1,.1-11.71,7.37,7.37,0,0,1,5.52-2.15,6.82,6.82,0,0,1,5.31,2.14,9.66,9.66,0,0,1,0,11.71A7,7,0,0,1,959.42,694.68Zm.11-14.8a5.7,5.7,0,0,0-4.43,1.82,7.31,7.31,0,0,0-1.65,5.08,7,7,0,0,0,1.61,4.82,5.56,5.56,0,0,0,4.4,1.82,5.42,5.42,0,0,0,4.38-1.79,8.91,8.91,0,0,0,0-10A5.45,5.45,0,0,0,959.53,679.88Z" transform="translate(-396.72 -326.03)"/><path class="cls-3" d="M981.45,694.31v-8.92q0-5.5-4.08-5.51a4.8,4.8,0,0,0-3.74,1.62,5.76,5.76,0,0,0-1.47,4v8.79h-1.41V679h1.41v2.78h.07a5.71,5.71,0,0,1,5.38-3.16,4.72,4.72,0,0,1,3.89,1.66,7.26,7.26,0,0,1,1.35,4.71v9.32Z" transform="translate(-396.72 -326.03)"/><path class="cls-3" d="M996.52,694.31V672.86h10.28v1.37H998v8.6h8.13v1.34H998V693h9.27v1.34Z" transform="translate(-396.72 -326.03)"/><path class="cls-3" d="M1021.33,694.31v-3.06h-.05a6.17,6.17,0,0,1-2.19,2.5,5.75,5.75,0,0,1-3.19.93,5,5,0,0,1-3.55-1.22,4,4,0,0,1-1.31-3.1c0-2.67,1.82-4.29,5.46-4.84l4.83-.71c0-3.28-1.27-4.93-3.81-4.93a7.88,7.88,0,0,0-5,2v-1.66a7.48,7.48,0,0,1,2.37-1.16,9.27,9.27,0,0,1,2.82-.48,4.79,4.79,0,0,1,3.76,1.47,6.17,6.17,0,0,1,1.32,4.26v10Zm-4.32-7.63a7.61,7.61,0,0,0-3.48,1.12,3,3,0,0,0-1,2.51,2.93,2.93,0,0,0,.93,2.23,3.62,3.62,0,0,0,2.6.88,4.91,4.91,0,0,0,3.77-1.63,6,6,0,0,0,1.5-4.22v-1.5Z" transform="translate(-396.72 -326.03)"/><path class="cls-3" d="M1034.9,680.44a2.78,2.78,0,0,0-1.66-.5,3.68,3.68,0,0,0-3.13,1.87,9.46,9.46,0,0,0-1.25,5.31v7.19h-1.38V679h1.38v3.39h.07a5.4,5.4,0,0,1,1.7-2.72,4.1,4.1,0,0,1,2.7-1,4.14,4.14,0,0,1,1.57.28Z" transform="translate(-396.72 -326.03)"/><path class="cls-3" d="M1045.46,694.1a5,5,0,0,1-2.07.52q-3.48,0-3.48-4.08V680.26h-2.83V679h2.83v-4l.69-.23.71-.24V679h4.15v1.26h-4.15v10.1a4,4,0,0,0,.51,2.3,2,2,0,0,0,1.75.71,4.1,4.1,0,0,0,1.89-.55Z" transform="translate(-396.72 -326.03)"/><path class="cls-3" d="M1059.27,694.31v-9.18a6.39,6.39,0,0,0-1-4,3.84,3.84,0,0,0-3.17-1.26,4.9,4.9,0,0,0-3.57,1.54,6,6,0,0,0-1.53,4.42v8.47h-1.41V671.64H1050v10.11h.07a5.92,5.92,0,0,1,5.4-3.13,4.75,4.75,0,0,1,3.88,1.6,7,7,0,0,1,1.34,4.59v9.5Z" transform="translate(-396.72 -326.03)"/><path class="cls-3" d="M1073.65,693.55v-1.69a9,9,0,0,0,4.79,1.47,6.3,6.3,0,0,0,3.92-1,3.49,3.49,0,0,0,1.33-2.91,3.75,3.75,0,0,0-.9-2.63,17.14,17.14,0,0,0-3.89-2.67,13.8,13.8,0,0,1-4.23-3.18,5,5,0,0,1-.89-3,4.91,4.91,0,0,1,1.81-3.85,7.07,7.07,0,0,1,4.83-1.59,12.61,12.61,0,0,1,3.94.65v1.55a10.28,10.28,0,0,0-4.14-.84,5.38,5.38,0,0,0-3.55,1.1,3.49,3.49,0,0,0-1.31,2.82,3.69,3.69,0,0,0,.89,2.61,17.73,17.73,0,0,0,3.88,2.65,13.72,13.72,0,0,1,4.11,3,4.88,4.88,0,0,1,1,3,5.12,5.12,0,0,1-1.77,4,7.23,7.23,0,0,1-5,1.55,11.7,11.7,0,0,1-2.62-.34A9,9,0,0,1,1073.65,693.55Z" transform="translate(-396.72 -326.03)"/><path class="cls-3" d="M1093.5,697.44a8.8,8.8,0,0,1-1.9,3.06,3.72,3.72,0,0,1-2.69,1,3.37,3.37,0,0,1-1.23-.21v-1.37a3.69,3.69,0,0,0,1.3.21c1.25,0,2.24-.85,3-2.54l1.46-3.4-6-15.19H1089l4.74,12.47.22.61a3.75,3.75,0,0,0,.13.51h.07l.37-1,5.06-12.55h1.53Z" transform="translate(-396.72 -326.03)"/><path class="cls-3" d="M1103.1,693.63V692A5.87,5.87,0,0,0,1105,693a6.45,6.45,0,0,0,2,.38c2.47,0,3.7-1,3.7-2.93a2.27,2.27,0,0,0-.81-1.75,9.8,9.8,0,0,0-2.64-1.48,9,9,0,0,1-3.17-2,3.59,3.59,0,0,1-.91-2.49,3.64,3.64,0,0,1,1.46-3,5.67,5.67,0,0,1,3.63-1.15,7.08,7.08,0,0,1,3.46.8V681a6.65,6.65,0,0,0-3.62-1.11,3.81,3.81,0,0,0-2.5.78,2.54,2.54,0,0,0-1,2.05,2.56,2.56,0,0,0,.6,1.77,8.15,8.15,0,0,0,2.65,1.56,11.58,11.58,0,0,1,3.37,2,3.3,3.3,0,0,1,.92,2.45,3.77,3.77,0,0,1-1.4,3,5.77,5.77,0,0,1-3.88,1.19A6.51,6.51,0,0,1,1103.1,693.63Z" transform="translate(-396.72 -326.03)"/><path class="cls-3" d="M1122.35,694.1a5,5,0,0,1-2.07.52q-3.49,0-3.49-4.08V680.26H1114V679h2.83v-4c.22-.08.45-.16.7-.23l.71-.24V679h4.15v1.26h-4.15v10.1a4,4,0,0,0,.51,2.3,2,2,0,0,0,1.75.71,4.1,4.1,0,0,0,1.89-.55Z" transform="translate(-396.72 -326.03)"/><path class="cls-3" d="M1125.81,686.71a7.41,7.41,0,0,0,1.49,4.93,5.08,5.08,0,0,0,4.11,1.78,8.52,8.52,0,0,0,5.16-1.89V693a9.38,9.38,0,0,1-5.44,1.68,6.23,6.23,0,0,1-4.92-2.12,8.71,8.71,0,0,1-1.88-6,8.39,8.39,0,0,1,2-5.65,6.4,6.4,0,0,1,5.09-2.3,5.38,5.38,0,0,1,4.5,2,8.64,8.64,0,0,1,1.57,5.47v.61Zm10.16-1.25a6.72,6.72,0,0,0-1.3-4.12,4.12,4.12,0,0,0-3.34-1.46,5,5,0,0,0-3.67,1.44,6.85,6.85,0,0,0-1.8,4.14Z" transform="translate(-396.72 -326.03)"/><path class="cls-3" d="M1161.07,694.31V685.1a6.68,6.68,0,0,0-.93-4.06,3.55,3.55,0,0,0-2.93-1.16,4.14,4.14,0,0,0-3.22,1.55,5.76,5.76,0,0,0-1.35,3.91v9h-1.41V685q0-5.12-4-5.11a4,4,0,0,0-3.2,1.57,6.13,6.13,0,0,0-1.28,4v8.82h-1.41V679h1.41v2.54h.07a5.22,5.22,0,0,1,4.8-2.92,4.64,4.64,0,0,1,2.95,1,4.8,4.8,0,0,1,1.65,2.54,5.93,5.93,0,0,1,2.11-2.58,5.26,5.26,0,0,1,3-.92q5.16,0,5.16,6.22v9.47Z" transform="translate(-396.72 -326.03)"/><path class="cls-3" d="M1177.65,685.71v8.6h-1.52V672.86h5.31a7.75,7.75,0,0,1,5.19,1.54,5.54,5.54,0,0,1,1.8,4.47,6.55,6.55,0,0,1-2,4.92,7.8,7.8,0,0,1-5.62,1.92Zm0-11.48v10.12h3.13a6.63,6.63,0,0,0,4.53-1.38,5,5,0,0,0,1.56-3.92q0-4.81-5.7-4.82Z" transform="translate(-396.72 -326.03)"/><path class="cls-3" d="M1200.35,680.44a2.79,2.79,0,0,0-1.67-.5,3.68,3.68,0,0,0-3.12,1.87,9.45,9.45,0,0,0-1.26,5.31v7.19h-1.38V679h1.38v3.39h.08a5.4,5.4,0,0,1,1.7-2.72,4.1,4.1,0,0,1,2.7-1,4.14,4.14,0,0,1,1.57.28Z" transform="translate(-396.72 -326.03)"/><path class="cls-3" d="M1203,686.71a7.46,7.46,0,0,0,1.49,4.93,5.08,5.08,0,0,0,4.11,1.78,8.53,8.53,0,0,0,5.17-1.89V693a9.41,9.41,0,0,1-5.45,1.68,6.23,6.23,0,0,1-4.92-2.12,8.76,8.76,0,0,1-1.88-6,8.45,8.45,0,0,1,2-5.65,6.4,6.4,0,0,1,5.1-2.3,5.38,5.38,0,0,1,4.5,2,8.7,8.7,0,0,1,1.57,5.47v.61Zm10.17-1.25a6.72,6.72,0,0,0-1.31-4.12,4.12,4.12,0,0,0-3.34-1.46,5,5,0,0,0-3.67,1.44,6.85,6.85,0,0,0-1.79,4.14Z" transform="translate(-396.72 -326.03)"/><path class="cls-3" d="M1229.73,694.31v-2.78h-.06a5.61,5.61,0,0,1-2.28,2.3,6.72,6.72,0,0,1-3.39.85,6,6,0,0,1-4.74-2.06,8.29,8.29,0,0,1-1.83-5.7,8.77,8.77,0,0,1,2-6,6.6,6.6,0,0,1,5.21-2.3,5.25,5.25,0,0,1,5,2.83h.06v-9.81h1.42v22.67Zm0-9.32a5.14,5.14,0,0,0-1.39-3.62,4.86,4.86,0,0,0-3.73-1.49,5.19,5.19,0,0,0-4.09,1.85,8.89,8.89,0,0,0-.16,10,4.64,4.64,0,0,0,3.74,1.72,5.31,5.31,0,0,0,4.15-1.62,5.64,5.64,0,0,0,1.48-4Z" transform="translate(-396.72 -326.03)"/><path class="cls-3" d="M1236.88,675.13a1.19,1.19,0,0,1-.82-.32,1.12,1.12,0,0,1-.35-.84,1,1,0,0,1,.36-.8,1.18,1.18,0,0,1,.81-.31,1.27,1.27,0,0,1,.83.3,1,1,0,0,1,.36.81,1.1,1.1,0,0,1-.35.82A1.17,1.17,0,0,1,1236.88,675.13Zm-.7,19.18V679h1.41v15.31Z" transform="translate(-396.72 -326.03)"/><path class="cls-3" d="M1252.82,693.63a8,8,0,0,1-4.18,1,6.69,6.69,0,0,1-5.17-2.14,8,8,0,0,1-2-5.62,8.33,8.33,0,0,1,2.21-6,7.51,7.51,0,0,1,5.68-2.33,8.76,8.76,0,0,1,3.49.72v1.55a7.07,7.07,0,0,0-3.7-1,5.72,5.72,0,0,0-4.48,1.94,7.24,7.24,0,0,0-1.72,5,7,7,0,0,0,1.57,4.79,5.25,5.25,0,0,0,4.16,1.8,7,7,0,0,0,4.11-1.21Z" transform="translate(-396.72 -326.03)"/><path class="cls-3" d="M1262.83,694.1a5,5,0,0,1-2.08.52q-3.48,0-3.48-4.08V680.26h-2.83V679h2.83v-4c.22-.08.45-.16.7-.23l.71-.24V679h4.15v1.26h-4.15v10.1a4,4,0,0,0,.51,2.3,2,2,0,0,0,1.75.71,4.1,4.1,0,0,0,1.89-.55Z" transform="translate(-396.72 -326.03)"/><path class="cls-3" d="M1266.64,675.13a1.21,1.21,0,0,1-.82-.32,1.11,1.11,0,0,1-.34-.84,1,1,0,0,1,.35-.8,1.19,1.19,0,0,1,.81-.31,1.27,1.27,0,0,1,.83.3,1,1,0,0,1,.37.81,1.08,1.08,0,0,1-.36.82A1.17,1.17,0,0,1,1266.64,675.13Zm-.7,19.18V679h1.41v15.31Z" transform="translate(-396.72 -326.03)"/><path class="cls-3" d="M1278.71,694.68a7,7,0,0,1-5.44-2.2,9.37,9.37,0,0,1,.09-11.71,7.38,7.38,0,0,1,5.52-2.15,6.85,6.85,0,0,1,5.32,2.14,8.47,8.47,0,0,1,2,5.92,8.33,8.33,0,0,1-2,5.79A6.94,6.94,0,0,1,1278.71,694.68Zm.12-14.8a5.71,5.71,0,0,0-4.44,1.82,7.31,7.31,0,0,0-1.65,5.08,7,7,0,0,0,1.62,4.82,5.55,5.55,0,0,0,4.4,1.82,5.45,5.45,0,0,0,4.38-1.79,8.93,8.93,0,0,0,0-10A5.43,5.43,0,0,0,1278.83,679.88Z" transform="translate(-396.72 -326.03)"/><path class="cls-3" d="M1300.74,694.31v-8.92q0-5.5-4.08-5.51a4.82,4.82,0,0,0-3.74,1.62,5.75,5.75,0,0,0-1.46,4v8.79h-1.41V679h1.41v2.78h.07a5.69,5.69,0,0,1,5.37-3.16,4.73,4.73,0,0,1,3.9,1.66,7.26,7.26,0,0,1,1.35,4.71v9.32Z" transform="translate(-396.72 -326.03)"/></svg>