<svg xmlns="http://www.w3.org/2000/svg" viewBox="0 0 256.9 84.6"><defs><style>.cls-1{fill:#231f20;}.cls-2{fill:#500000;}.cls-3{fill:#fff;}.cls-4{fill:#b1b3b6;}</style></defs><title>Oceanography-RGB</title><g id="Lockup_-_Standard" data-name="Lockup - Standard"><path class="cls-1" d="M100.31,49.35a9,9,0,0,1-2,6.2,7,7,0,0,1-5.54,2.26,7.09,7.09,0,0,1-5.6-2.22,9.12,9.12,0,0,1-2-6.26,9,9,0,0,1,2-6.22,7.13,7.13,0,0,1,5.61-2.2,7,7,0,0,1,5.53,2.24A9.07,9.07,0,0,1,100.31,49.35Zm-13.08,0a7.77,7.77,0,0,0,1.42,5.06,5.79,5.79,0,0,0,8.25,0,7.92,7.92,0,0,0,1.39-5.07,7.86,7.86,0,0,0-1.38-5,5,5,0,0,0-4.11-1.72,5.07,5.07,0,0,0-4.15,1.73A7.69,7.69,0,0,0,87.23,49.35Z"/><path class="cls-1" d="M108.61,57.81a5.26,5.26,0,0,1-4.14-1.65A6.77,6.77,0,0,1,103,51.51a6.92,6.92,0,0,1,1.49-4.77,5.33,5.33,0,0,1,4.24-1.69,8.88,8.88,0,0,1,1.77.19,6,6,0,0,1,1.39.45l-.57,1.59a7.36,7.36,0,0,0-1.35-.41,5.87,5.87,0,0,0-1.29-.17q-3.75,0-3.75,4.79a5.7,5.7,0,0,0,.92,3.48,3.17,3.17,0,0,0,2.71,1.21,8.28,8.28,0,0,0,3.15-.66v1.65A6.67,6.67,0,0,1,108.61,57.81Z"/><path class="cls-1" d="M119.84,57.81a5.63,5.63,0,0,1-4.3-1.66A6.41,6.41,0,0,1,114,51.53a7.19,7.19,0,0,1,1.46-4.73,4.9,4.9,0,0,1,3.94-1.75A4.66,4.66,0,0,1,123,46.57a5.85,5.85,0,0,1,1.35,4v1.18h-8.48a4.87,4.87,0,0,0,1.1,3.29,3.76,3.76,0,0,0,2.92,1.12,9.94,9.94,0,0,0,3.93-.83V57a9.23,9.23,0,0,1-1.87.61A10.07,10.07,0,0,1,119.84,57.81Zm-.5-11.2a3.07,3.07,0,0,0-2.37,1,4.51,4.51,0,0,0-1,2.67h6.44a4.08,4.08,0,0,0-.79-2.7A2.77,2.77,0,0,0,119.34,46.61Z"/><path class="cls-1" d="M135.12,57.59l-.37-1.76h-.09a5.23,5.23,0,0,1-1.84,1.57,5.64,5.64,0,0,1-2.28.41,4.09,4.09,0,0,1-2.87-.94,3.43,3.43,0,0,1-1-2.69c0-2.48,2-3.79,6-3.91l2.09-.06v-.77a3.16,3.16,0,0,0-.62-2.14,2.58,2.58,0,0,0-2-.69,8.16,8.16,0,0,0-3.48,1L128,46.13a8.77,8.77,0,0,1,2-.78,9,9,0,0,1,2.17-.28,4.72,4.72,0,0,1,3.27,1,4.12,4.12,0,0,1,1.06,3.14v8.4Zm-4.21-1.32a3.79,3.79,0,0,0,2.73-1,3.55,3.55,0,0,0,1-2.68V51.53l-1.86.08a6.77,6.77,0,0,0-3.21.69,2.09,2.09,0,0,0-1,1.9,1.94,1.94,0,0,0,.61,1.54A2.51,2.51,0,0,0,130.91,56.27Z"/><path class="cls-1" d="M148.76,57.59v-8a3.23,3.23,0,0,0-.68-2.24,2.78,2.78,0,0,0-2.15-.74,3.52,3.52,0,0,0-2.83,1,5.28,5.28,0,0,0-.9,3.45v6.46h-1.86V45.28h1.51l.31,1.68h.09a3.8,3.8,0,0,1,1.6-1.41,5.29,5.29,0,0,1,2.31-.5,4.69,4.69,0,0,1,3.34,1.07,4.58,4.58,0,0,1,1.13,3.44v8Z"/><path class="cls-1" d="M165.08,51.42a6.75,6.75,0,0,1-1.52,4.7,5.32,5.32,0,0,1-4.19,1.69,5.53,5.53,0,0,1-2.93-.78,5,5,0,0,1-2-2.22,7.63,7.63,0,0,1-.7-3.39,6.75,6.75,0,0,1,1.51-4.69,5.3,5.3,0,0,1,4.17-1.68,5.2,5.2,0,0,1,4.11,1.72A6.8,6.8,0,0,1,165.08,51.42Zm-9.38,0a5.82,5.82,0,0,0,1,3.59,3.24,3.24,0,0,0,2.77,1.24A3.29,3.29,0,0,0,162.2,55a5.83,5.83,0,0,0,1-3.6,5.75,5.75,0,0,0-1-3.57,3.82,3.82,0,0,0-5.57,0A5.78,5.78,0,0,0,155.7,51.42Z"/><path class="cls-1" d="M178.42,45.28v1.18l-2.28.27a3.74,3.74,0,0,1,.56,1,3.85,3.85,0,0,1,.25,1.44,3.64,3.64,0,0,1-1.23,2.88,5,5,0,0,1-3.4,1.08,5.64,5.64,0,0,1-1-.09,1.84,1.84,0,0,0-1.19,1.58.8.8,0,0,0,.42.75,3,3,0,0,0,1.42.24h2.18a4.88,4.88,0,0,1,3.07.84,2.91,2.91,0,0,1,1.07,2.45A3.51,3.51,0,0,1,176.63,62a8.85,8.85,0,0,1-4.79,1.07,6.51,6.51,0,0,1-3.72-.9,2.9,2.9,0,0,1-1.31-2.54,2.86,2.86,0,0,1,.72-1.94,3.66,3.66,0,0,1,2-1.11,1.92,1.92,0,0,1-.79-.66,1.72,1.72,0,0,1-.32-1.05,2,2,0,0,1,.36-1.18,3.74,3.74,0,0,1,1.13-1,3.39,3.39,0,0,1-1.55-1.34,4.43,4.43,0,0,1,.61-5.27,4.94,4.94,0,0,1,3.43-1.1,6.29,6.29,0,0,1,1.75.23Zm-9.81,14.37a1.68,1.68,0,0,0,.84,1.52,4.69,4.69,0,0,0,2.41.52,6.71,6.71,0,0,0,3.48-.71,2.14,2.14,0,0,0,1.13-1.9,1.51,1.51,0,0,0-.62-1.39,4.76,4.76,0,0,0-2.32-.39h-2.24a3,3,0,0,0-2,.61A2.18,2.18,0,0,0,168.61,59.65Zm1-10.43a2.48,2.48,0,0,0,.73,2,2.9,2.9,0,0,0,2,.67c1.82,0,2.73-.89,2.73-2.65a2.45,2.45,0,0,0-2.76-2.78,2.73,2.73,0,0,0-2,.71A2.81,2.81,0,0,0,169.62,49.22Z"/><path class="cls-1" d="M186.56,45.05a7.37,7.37,0,0,1,1.48.14l-.26,1.73a5.92,5.92,0,0,0-1.35-.17A3.28,3.28,0,0,0,183.87,48a4.47,4.47,0,0,0-1.06,3v6.61H181V45.28h1.54l.21,2.28h.09a5.58,5.58,0,0,1,1.65-1.86A3.76,3.76,0,0,1,186.56,45.05Z"/><path class="cls-1" d="M197.91,57.59l-.37-1.76h-.09a5.23,5.23,0,0,1-1.84,1.57,5.64,5.64,0,0,1-2.28.41,4.09,4.09,0,0,1-2.87-.94,3.43,3.43,0,0,1-1-2.69c0-2.48,2-3.79,6-3.91l2.09-.06v-.77a3.16,3.16,0,0,0-.62-2.14,2.58,2.58,0,0,0-2-.69,8.16,8.16,0,0,0-3.48,1l-.57-1.43a8.77,8.77,0,0,1,2-.78,9,9,0,0,1,2.17-.28,4.72,4.72,0,0,1,3.27,1,4.12,4.12,0,0,1,1.06,3.14v8.4Zm-4.21-1.32a3.79,3.79,0,0,0,2.73-1,3.55,3.55,0,0,0,1-2.68V51.53l-1.86.08a6.77,6.77,0,0,0-3.21.69,2.09,2.09,0,0,0-1,1.9,1.94,1.94,0,0,0,.61,1.54A2.51,2.51,0,0,0,193.7,56.27Z"/><path class="cls-1" d="M208.86,57.81a5.44,5.44,0,0,1-2.2-.44A4.16,4.16,0,0,1,205,56h-.13a16.47,16.47,0,0,1,.13,2v5.06h-1.86V45.28h1.52L204.9,47H205a4.36,4.36,0,0,1,1.68-1.46,5,5,0,0,1,2.19-.45,4.55,4.55,0,0,1,3.78,1.68A7.39,7.39,0,0,1,214,51.42a7.28,7.28,0,0,1-1.36,4.71A4.54,4.54,0,0,1,208.86,57.81Zm-.27-11.17a3.29,3.29,0,0,0-2.73,1A5.41,5.41,0,0,0,205,51v.42a6.11,6.11,0,0,0,.87,3.71,3.28,3.28,0,0,0,2.77,1.12,2.88,2.88,0,0,0,2.5-1.29A6.15,6.15,0,0,0,212,51.4a5.9,5.9,0,0,0-.91-3.53A3,3,0,0,0,208.59,46.64Z"/><path class="cls-1" d="M225.65,57.59v-8a3.18,3.18,0,0,0-.69-2.24,2.77,2.77,0,0,0-2.14-.74,3.53,3.53,0,0,0-2.84,1,5.4,5.4,0,0,0-.89,3.46v6.44h-1.87V40.11h1.87V45.4A11.42,11.42,0,0,1,219,47h.11a3.8,3.8,0,0,1,1.57-1.39,5,5,0,0,1,2.32-.52,4.72,4.72,0,0,1,3.38,1.08,4.52,4.52,0,0,1,1.13,3.41v8Z"/><path class="cls-1" d="M229.39,45.28h2l2.69,7a26.5,26.5,0,0,1,1.1,3.47h.09c.1-.39.3-1,.61-2s1.33-3.77,3.05-8.53h2l-5.29,14a6.93,6.93,0,0,1-1.83,3,3.91,3.91,0,0,1-2.58.87,7.42,7.42,0,0,1-1.69-.19V61.43a6.6,6.6,0,0,0,1.38.13,2.83,2.83,0,0,0,2.74-2.16l.69-1.75Z"/><path class="cls-1" d="M87.73,30.53H86.38v-7H84V22.33h6.17v1.15H87.73Z"/><path class="cls-1" d="M96.62,30.53H92v-8.2h4.65v1.13H93.31v2.23h3.1v1.13h-3.1V29.4h3.31Z"/><path class="cls-1" d="M105,30.53h-1.54l-2.06-3.35-2.07,3.35H97.9l2.73-4.25-2.55-4h1.49l1.9,3.1,1.9-3.1h1.45l-2.57,4Z"/><path class="cls-1" d="M111.79,30.53,111,28.26h-3.14l-.8,2.27h-1.42l3.07-8.24h1.46l3.07,8.24Zm-1.18-3.43-.77-2.24c0-.15-.13-.38-.23-.7s-.17-.56-.2-.71A11.78,11.78,0,0,1,109,25l-.74,2.14Z"/><path class="cls-1" d="M119.61,28.31a2,2,0,0,1-.8,1.71,3.39,3.39,0,0,1-2.18.63,5.17,5.17,0,0,1-2.28-.44V29a6.42,6.42,0,0,0,1.19.41,5.15,5.15,0,0,0,1.18.15,1.92,1.92,0,0,0,1.18-.3,1,1,0,0,0,.38-.81,1.05,1.05,0,0,0-.35-.79,5.25,5.25,0,0,0-1.44-.75,3.79,3.79,0,0,1-1.58-1,2.19,2.19,0,0,1-.46-1.41,2,2,0,0,1,.73-1.61,3,3,0,0,1,2-.59,5.81,5.81,0,0,1,2.34.51l-.42,1.1a5.11,5.11,0,0,0-2-.46,1.52,1.52,0,0,0-1,.28.94.94,0,0,0-.33.75,1.07,1.07,0,0,0,.13.55,1.44,1.44,0,0,0,.45.43,7.4,7.4,0,0,0,1.11.53,6.37,6.37,0,0,1,1.32.7,2.14,2.14,0,0,1,.62.74A2.24,2.24,0,0,1,119.61,28.31Z"/><path class="cls-1" d="M130.43,30.53l-.82-2.27h-3.14l-.81,2.27h-1.41l3.07-8.24h1.46l3.07,8.24Zm-1.18-3.43-.77-2.24c0-.15-.13-.38-.23-.7s-.17-.56-.21-.71A11.62,11.62,0,0,1,127.6,25l-.74,2.14Z"/><path class="cls-1" d="M133,28.36a2.26,2.26,0,0,1,.36-1.28A3.65,3.65,0,0,1,134.62,26a4.38,4.38,0,0,1-.72-1,2.14,2.14,0,0,1-.2-.89,1.64,1.64,0,0,1,.61-1.35,2.52,2.52,0,0,1,1.64-.49,2.35,2.35,0,0,1,1.56.48,1.6,1.6,0,0,1,.57,1.29,1.92,1.92,0,0,1-.38,1.16,4.29,4.29,0,0,1-1.27,1.05l1.94,1.87a4.85,4.85,0,0,0,.76-1.76h1.36a6.14,6.14,0,0,1-1.26,2.6l1.69,1.63h-1.7l-.84-.81a3.91,3.91,0,0,1-1.22.69,4.09,4.09,0,0,1-1.43.24,3.08,3.08,0,0,1-2-.62A2,2,0,0,1,133,28.36Zm2.83,1.15a2.66,2.66,0,0,0,1.75-.6l-2.15-2.12a3.06,3.06,0,0,0-.82.72,1.33,1.33,0,0,0-.22.76,1.14,1.14,0,0,0,.39.9A1.53,1.53,0,0,0,135.8,29.51ZM135,24.09a1.24,1.24,0,0,0,.19.67,4,4,0,0,0,.52.67,3.08,3.08,0,0,0,.89-.67,1.08,1.08,0,0,0,.26-.7.72.72,0,0,0-.25-.58.92.92,0,0,0-.65-.22,1,1,0,0,0-.7.22A.8.8,0,0,0,135,24.09Z"/><path class="cls-1" d="M146.15,30.53l-2.38-6.85h-.05c.06,1,.1,2,.1,2.86v4H142.6v-8.2h1.89l2.28,6.53h0l2.35-6.53h1.9v8.2h-1.29V26.48c0-.41,0-.94,0-1.6s0-1.05.05-1.19h0l-2.47,6.84Z"/><path class="cls-1" d="M163.78,22.33v5.31a3.18,3.18,0,0,1-.39,1.59,2.62,2.62,0,0,1-1.13,1.05,4,4,0,0,1-1.76.37,3.32,3.32,0,0,1-2.38-.81,3,3,0,0,1-.85-2.23V22.33h1.35v5.19a2.09,2.09,0,0,0,.47,1.5,2,2,0,0,0,1.45.48c1.27,0,1.9-.66,1.9-2V22.33Z"/><path class="cls-1" d="M173.3,30.53h-1.65l-4-6.54h0l0,.37c.05.69.08,1.33.08,1.91v4.26h-1.22v-8.2h1.63l4,6.5h0c0-.08,0-.4-.05-.94s0-1,0-1.26v-4.3h1.23Z"/><path class="cls-1" d="M176,30.53v-8.2h1.34v8.2Z"/><path class="cls-1" d="M184.8,22.33h1.39l-2.87,8.2H181.9L179,22.33h1.38l1.71,5.1c.09.24.19.56.29.94s.17.67.2.86c0-.29.12-.62.22-1s.19-.65.25-.83Z"/><path class="cls-1" d="M192.5,30.53h-4.65v-8.2h4.65v1.13h-3.3v2.23h3.09v1.13H189.2V29.4h3.3Z"/><path class="cls-1" d="M196.19,27.26v3.27h-1.34v-8.2h2.31a3.82,3.82,0,0,1,2.36.59,2.14,2.14,0,0,1,.76,1.8,2.24,2.24,0,0,1-1.59,2.18L201,30.53h-1.53l-2-3.27Zm0-1.12h.93a2.14,2.14,0,0,0,1.36-.34,1.29,1.29,0,0,0,.42-1,1.12,1.12,0,0,0-.45-1,2.53,2.53,0,0,0-1.37-.3h-.89Z"/><path class="cls-1" d="M207.51,28.31a2,2,0,0,1-.8,1.71,3.39,3.39,0,0,1-2.18.63,5.17,5.17,0,0,1-2.28-.44V29a6.42,6.42,0,0,0,1.19.41,5.15,5.15,0,0,0,1.18.15,1.92,1.92,0,0,0,1.18-.3,1,1,0,0,0,.37-.81,1,1,0,0,0-.34-.79,5.42,5.42,0,0,0-1.44-.75,3.79,3.79,0,0,1-1.58-1,2.19,2.19,0,0,1-.46-1.41,2,2,0,0,1,.73-1.61,3,3,0,0,1,2-.59,5.81,5.81,0,0,1,2.34.51l-.42,1.1a5.11,5.11,0,0,0-2-.46,1.52,1.52,0,0,0-1,.28.94.94,0,0,0-.33.75,1.07,1.07,0,0,0,.13.55,1.51,1.51,0,0,0,.44.43,8.21,8.21,0,0,0,1.12.53,6.37,6.37,0,0,1,1.32.7,2.14,2.14,0,0,1,.62.74A2.24,2.24,0,0,1,207.51,28.31Z"/><path class="cls-1" d="M209.67,30.53v-8.2H211v8.2Z"/><path class="cls-1" d="M216.59,30.53h-1.34v-7h-2.42V22.33H219v1.15h-2.41Z"/><path class="cls-1" d="M223.16,26.07l1.94-3.74h1.46l-2.73,5v3.18h-1.35V27.4l-2.73-5.07h1.46Z"/><path id="R_symbol" data-name="R symbol" class="cls-2" d="M71,67.83a1.08,1.08,0,1,1,1.07,1.07A1.07,1.07,0,0,1,71,67.83Zm1.89,0a.82.82,0,1,0-.82.87A.84.84,0,0,0,72.89,67.83Zm-1.23-.61h.45c.29,0,.45.1.45.36s-.12.3-.32.32l.33.53h-.23L72,67.91h-.13v.52h-.23Zm.23.52h.19c.14,0,.25,0,.25-.18s-.13-.17-.24-.17h-.2Z"/><g id="Block_aTm" data-name="Block aTm"><rect class="cls-2" x="15.52" y="14.9" width="53.58" height="54"/><polygon class="cls-3" points="61.98 36.4 58 36.4 57.77 36.4 57.67 36.6 54.78 42.61 51.89 36.6 51.79 36.4 51.56 36.4 47.71 36.4 47.35 36.4 47.35 36.76 47.35 38.81 47.35 39.18 47.71 39.18 48.37 39.18 48.37 47.78 47.66 47.78 47.29 47.78 47.29 48.14 47.29 50.19 47.29 50.56 47.66 50.56 51.98 50.56 52.34 50.56 52.34 50.19 52.34 48.14 52.34 47.78 51.98 47.78 51.23 47.78 51.23 41.67 54.45 48.33 54.78 49 55.12 48.33 58.38 41.66 58.38 47.78 57.66 47.78 57.3 47.78 57.3 48.14 57.3 50.19 57.3 50.56 57.66 50.56 61.98 50.56 62.35 50.56 62.35 50.19 62.35 48.14 62.35 47.78 61.98 47.78 61.24 47.78 61.24 39.18 61.98 39.18 62.35 39.18 62.35 38.81 62.35 36.76 62.35 36.4 61.98 36.4"/><path class="cls-3" d="M36.9,47.77H35.75L32,39.13h.72V36.35h-6v2.78h.83l-3.74,8.64H22.27v2.78h5.44V47.77h-.79l.62-1.44H32l.61,1.44h-.83v2.78h5.45V47.77Zm-6.07-4.22H28.74l1.05-2.41Z"/><polygon class="cls-3" points="57.41 25.6 27.11 25.6 26.69 25.6 26.69 26.02 26.69 34.11 26.69 34.53 27.11 34.53 32.34 34.53 32.76 34.53 32.76 34.11 32.76 31.1 39.22 31.1 39.22 52.44 36.22 52.44 35.8 52.44 35.8 52.85 35.8 58.09 35.8 58.51 36.22 58.51 48.3 58.51 48.72 58.51 48.72 58.09 48.72 52.85 48.72 52.44 48.3 52.44 45.3 52.44 45.3 31.1 51.72 31.1 51.72 34.07 51.72 34.49 52.14 34.49 57.41 34.49 57.83 34.49 57.83 34.07 57.83 26.02 57.83 25.6 57.41 25.6"/><polygon class="cls-4" points="46.19 54.93 47.47 53.61 47.47 57.22 46.19 56 46.19 54.93"/><polygon class="cls-4" points="44.06 53.7 42.78 54.97 42.78 28.59 44.06 29.86 44.06 53.7"/><polygon class="cls-4" points="29.25 28.13 27.94 26.84 55.94 26.84 54.28 28.13 29.25 28.13"/><polygon class="cls-4" points="56.62 33.32 55.34 32.1 55.34 28.84 56.62 27.52 56.62 33.32"/></g></g></svg>